<?xml version="1.0" encoding="utf-8"?><svg viewBox="0 0 181 150" xmlns="http://www.w3.org/2000/svg" xmlns:xlink="http://www.w3.org/1999/xlink"><style>:root>svg{display:none}:root>svg:target{display:block}</style><svg viewBox="0 0 7 10" id="arrow" xmlns="http://www.w3.org/2000/svg"><path d="M3.672 5L.843 2.172 2.257.757 6.5 5 2.257 9.243.843 7.828 3.672 5z"/></svg><svg viewBox="0 0 25 24" id="arrow-btn" xmlns="http://www.w3.org/2000/svg"><path d="M12.672 12L9.843 9.172l1.414-1.415L15.5 12l-4.243 4.243-1.414-1.415L12.672 12z"/></svg><svg viewBox="0 0 24 24" id="calendar__left" xmlns="http://www.w3.org/2000/svg"><path d="M10.828 12l4.95-4.95-1.414-1.414L8 12l6.364 6.364 1.414-1.414-4.95-4.95z"/></svg><svg viewBox="0 0 24 24" id="calendar__right" xmlns="http://www.w3.org/2000/svg"><path d="M13.172 12l-4.95-4.95 1.414-1.414L16 12l-6.364 6.364-1.414-1.414 4.95-4.95z"/></svg><svg viewBox="0 0 10 16" id="classmates__footer" xmlns="http://www.w3.org/2000/svg"><path d="M5.297 2.978c.915 0 1.66.69 1.66 1.539 0 .847-.745 1.538-1.66 1.538-.915 0-1.66-.69-1.66-1.538 0-.85.745-1.54 1.66-1.54zm0 5.254c2.211 0 4.01-1.667 4.01-3.715C9.307 2.467 7.509.8 5.297.8c-2.212 0-4.01 1.667-4.01 3.717 0 2.048 1.798 3.715 4.01 3.715zm1.622 3.031a7.848 7.848 0 002.329-.893c.263-.154.45-.399.52-.68.069-.282.014-.577-.152-.822a1.128 1.128 0 00-.314-.309 1.265 1.265 0 00-1.305-.033 5.436 5.436 0 01-5.4 0 1.265 1.265 0 00-1.305.033 1.128 1.128 0 00-.315.31c-.166.244-.22.539-.15.82.068.282.255.527.519.68.716.418 1.503.72 2.328.894l-2.242 2.078a1.05 1.05 0 00-.344.77c0 .289.124.566.344.77.22.204.52.319.831.319.312 0 .61-.115.83-.32l2.203-2.04L7.5 14.88c.11.102.239.182.381.237a1.255 1.255 0 00.899 0c.142-.055.272-.135.38-.236.11-.101.197-.221.256-.353a1.018 1.018 0 000-.834 1.086 1.086 0 00-.255-.353l-2.242-2.078z"/></svg><svg viewBox="0 0 15 24" id="classmates__footer-middle" xmlns="http://www.w3.org/2000/svg"><path d="M7.5 3.63c1.526 0 2.767 1.15 2.767 2.565 0 1.413-1.241 2.563-2.767 2.563-1.525 0-2.767-1.15-2.767-2.563C4.733 4.78 5.975 3.63 7.5 3.63zm0 8.756c3.686 0 6.684-2.777 6.684-6.191C14.184 2.778 11.186 0 7.5 0S.816 2.779.816 6.195c0 3.414 2.998 6.191 6.684 6.191zm2.704 5.053a13.074 13.074 0 003.88-1.49c.44-.256.752-.663.867-1.133.115-.469.025-.961-.252-1.369a1.879 1.879 0 00-.525-.514 2.034 2.034 0 00-.697-.29 2.11 2.11 0 00-.764-.019c-.254.04-.496.126-.714.253-2.738 1.595-6.262 1.594-8.998 0a2.053 2.053 0 00-.714-.253 2.11 2.11 0 00-.764.02c-.25.053-.488.15-.697.289a1.88 1.88 0 00-.525.514c-.277.408-.367.9-.252 1.37.115.469.426.876.866 1.133a13.089 13.089 0 003.88 1.489l-3.736 3.463a1.75 1.75 0 00-.574 1.283c0 .482.207.943.574 1.284.367.34.865.53 1.385.53a2.04 2.04 0 001.384-.531L7.5 20.066l3.673 3.402c.182.169.397.303.635.394a2.09 2.09 0 001.498 0 1.97 1.97 0 00.635-.394 1.81 1.81 0 00.425-.588 1.697 1.697 0 000-1.39 1.81 1.81 0 00-.425-.587l-3.736-3.464z"/></svg><svg viewBox="0 0 86 19" id="forest__footer" xmlns="http://www.w3.org/2000/svg"><path d="M6.753 9.697a.929.929 0 011.412 0l4.444 5.201a.929.929 0 01-.706 1.532H3.014a.929.929 0 01-.706-1.532l4.445-5.201z"/><path d="M6.753 5.261a.929.929 0 011.412 0l4.444 5.202a.929.929 0 01-.706 1.532H3.014a.929.929 0 01-.706-1.532L6.753 5.26z"/><path d="M6.753.826a.929.929 0 011.412 0l4.445 5.202a.929.929 0 01-.707 1.532H3.014a.929.929 0 01-.706-1.532L6.753.826zM25.772 4.568v1.648H22.16v1.78h2.703v1.601H22.16v3.417H20V4.568h5.772zM29.702 13.11c-.69 0-1.314-.14-1.87-.42a3.224 3.224 0 01-1.3-1.204c-.312-.521-.468-1.131-.468-1.829 0-.69.16-1.295.48-1.817a3.18 3.18 0 011.314-1.215c.556-.28 1.179-.421 1.87-.421.69 0 1.313.14 1.868.421.556.28.994.686 1.314 1.215.32.522.48 1.127.48 1.817s-.164 1.3-.493 1.829c-.32.521-.762.922-1.326 1.203-.556.281-1.179.421-1.87.421zm0-1.78a1.42 1.42 0 001.048-.434c.295-.288.442-.701.442-1.239 0-.537-.143-.95-.43-1.24a1.38 1.38 0 00-1.035-.432c-.42 0-.77.144-1.048.433-.278.28-.417.694-.417 1.24 0 .537.135.95.404 1.238.278.29.623.434 1.036.434zM36.695 7.42c.253-.37.569-.659.948-.867a2.5 2.5 0 011.263-.325v2.178h-.594c-.539 0-.943.112-1.212.337-.27.216-.405.601-.405 1.155v3.116h-2.16V6.3h2.16v1.12zM46.581 9.549c0 .192-.012.393-.038.601h-4.887c.033.418.172.738.416.963.253.217.56.325.922.325.54 0 .914-.217 1.124-.65h2.3a2.918 2.918 0 01-.645 1.191c-.303.353-.686.63-1.15.83-.462.201-.98.301-1.553.301-.69 0-1.305-.14-1.844-.42a3.074 3.074 0 01-1.263-1.204c-.303-.521-.455-1.131-.455-1.829s.148-1.307.443-1.829a3.074 3.074 0 011.263-1.203c.538-.28 1.157-.421 1.856-.421.682 0 1.288.136 1.819.409.53.273.943.662 1.238 1.167.303.505.454 1.095.454 1.769zm-2.21-.542c0-.353-.126-.633-.379-.842-.252-.208-.568-.313-.947-.313-.362 0-.67.1-.922.301-.244.2-.396.485-.455.854h2.703zM50.588 13.11c-.615 0-1.162-.1-1.642-.3-.48-.201-.859-.474-1.137-.819a2.139 2.139 0 01-.467-1.179h2.134a.774.774 0 00.341.566c.202.144.45.216.745.216.27 0 .476-.048.62-.144.15-.104.227-.237.227-.397 0-.193-.106-.333-.316-.421-.21-.096-.552-.2-1.023-.313a10.804 10.804 0 01-1.263-.349 2.27 2.27 0 01-.872-.59c-.244-.272-.366-.637-.366-1.095 0-.385.11-.733.328-1.046.228-.321.556-.574.986-.758.438-.185.955-.277 1.553-.277.884 0 1.579.208 2.084.626.514.417.808.97.884 1.66H51.41a.803.803 0 00-.329-.553c-.176-.137-.412-.205-.707-.205-.253 0-.446.048-.581.144a.421.421 0 00-.202.373c0 .193.105.337.316.434.219.096.555.192 1.01.288.522.129.947.257 1.276.385.328.12.614.321.859.602.252.273.383.642.391 1.107 0 .393-.118.746-.353 1.059-.228.304-.56.545-.998.722-.43.176-.93.264-1.503.264zM58.691 11.27v1.744h-1.098c-.784 0-1.394-.18-1.832-.541-.438-.37-.657-.967-.657-1.793V8.009h-.858V6.3h.858V4.664h2.16V6.3h1.415V8.01h-1.415v2.695c0 .2.05.345.152.433.1.088.27.132.505.132h.77zM70.868 6.445l-2.16 6.57h-.883l-1.908-5.512-1.907 5.511h-.896l-2.16-6.57h.897l1.717 5.716 1.933-5.715h.884l1.907 5.727 1.705-5.727h.871zM77.9 9.392c0 .29-.009.51-.026.662h-5.721c.025.498.152.923.379 1.276.227.352.526.621.897.806.37.176.774.264 1.212.264.573 0 1.053-.132 1.44-.397.396-.264.657-.621.783-1.07h.935a2.792 2.792 0 01-1.087 1.576c-.547.4-1.237.601-2.07.601-.65 0-1.23-.136-1.744-.409a3.1 3.1 0 01-1.212-1.179c-.287-.513-.43-1.11-.43-1.793 0-.681.143-1.28.43-1.792a2.912 2.912 0 011.2-1.18c.513-.272 1.098-.409 1.755-.409.657 0 1.23.137 1.718.41a2.83 2.83 0 011.137 1.106c.269.458.404.967.404 1.528zm-.897-.024c.008-.489-.097-.906-.316-1.251a2.012 2.012 0 00-.871-.782 2.782 2.782 0 00-1.213-.265c-.656 0-1.216.2-1.68.602-.463.4-.72.966-.77 1.696h4.85zM79.975 7.9c.228-.457.577-.83 1.049-1.119.48-.288 1.044-.433 1.692-.433.632 0 1.196.14 1.693.421.496.273.884.666 1.162 1.18.286.505.429 1.095.429 1.768 0 .674-.143 1.268-.43 1.781a2.93 2.93 0 01-1.174 1.191 3.354 3.354 0 01-1.68.421c-.657 0-1.225-.14-1.705-.42a2.639 2.639 0 01-1.035-1.12v1.444h-.872V4.11h.871V7.9zm5.128 1.817c0-.545-.113-1.014-.34-1.407a2.221 2.221 0 00-.91-.915 2.726 2.726 0 00-1.314-.313c-.471 0-.905.109-1.3.325a2.383 2.383 0 00-.922.927c-.228.4-.341.866-.341 1.395 0 .53.113.995.34 1.396.228.401.535.71.922.927.396.216.83.324 1.301.324.489 0 .927-.104 1.314-.312a2.3 2.3 0 00.91-.927c.227-.409.34-.882.34-1.42z"/></svg><svg viewBox="0 0 22 22" id="insta" xmlns="http://www.w3.org/2000/svg"><path d="M7.334 11a3.667 3.667 0 117.333 0 3.667 3.667 0 01-7.333 0zm-1.982 0a5.648 5.648 0 1011.297 0 5.648 5.648 0 00-11.297 0zm10.2-5.872a1.32 1.32 0 101.321-1.32 1.32 1.32 0 00-1.32 1.32zM6.557 19.954c-1.072-.05-1.655-.228-2.043-.379-.513-.2-.88-.438-1.265-.822a3.394 3.394 0 01-.823-1.265c-.15-.387-.33-.97-.378-2.043-.053-1.16-.064-1.507-.064-4.445 0-2.937.011-3.285.064-4.445.049-1.073.229-1.655.378-2.043.2-.514.438-.88.823-1.265a3.39 3.39 0 011.265-.823c.388-.151.97-.33 2.043-.378 1.16-.054 1.508-.064 4.444-.064 2.937 0 3.285.011 4.446.064 1.072.048 1.654.228 2.043.378.513.199.88.438 1.265.823.385.385.623.751.823 1.265.15.387.33.97.378 2.043.054 1.16.064 1.508.064 4.445 0 2.938-.01 3.285-.064 4.445-.048 1.073-.228 1.656-.378 2.043-.2.514-.438.88-.823 1.265a3.419 3.419 0 01-1.265.822c-.387.151-.97.33-2.043.379-1.16.053-1.508.064-4.446.064-2.937 0-3.285-.01-4.444-.064zM6.466.067c-1.172.053-1.972.239-2.67.51a5.396 5.396 0 00-1.95 1.27A5.375 5.375 0 00.578 3.794c-.272.7-.458 1.499-.511 2.67C.012 7.638 0 8.013 0 11s.012 3.362.067 4.535c.053 1.171.239 1.97.51 2.67.281.723.657 1.338 1.27 1.949a5.409 5.409 0 001.948 1.268c.7.272 1.5.458 2.67.511C7.64 21.987 8.013 22 11 22c2.988 0 3.363-.012 4.536-.067 1.17-.053 1.97-.239 2.67-.51a5.411 5.411 0 001.948-1.27 5.39 5.39 0 001.27-1.948c.271-.7.458-1.499.51-2.67.054-1.174.066-1.548.066-4.535s-.012-3.362-.066-4.535c-.053-1.171-.239-1.971-.51-2.67a5.409 5.409 0 00-1.27-1.949A5.383 5.383 0 0018.207.578c-.7-.272-1.5-.459-2.67-.511C14.364.013 13.989 0 11 0 8.014 0 7.64.012 6.465.067z"/></svg><svg viewBox="0 0 16 16" id="instagram" xmlns="http://www.w3.org/2000/svg"><path d="M8 .5c2.038 0 2.292.007 3.091.045.8.037 1.343.163 1.822.349.495.19.912.448 1.329.864.38.375.676.829.864 1.33.185.477.312 1.022.349 1.82.035.8.045 1.054.045 3.092 0 2.038-.008 2.292-.045 3.091-.037.8-.164 1.343-.349 1.822-.188.5-.483.954-.864 1.329a3.687 3.687 0 01-1.33.864c-.477.185-1.022.312-1.82.349-.8.035-1.054.045-3.092.045-2.038 0-2.292-.008-3.091-.045-.8-.037-1.343-.164-1.821-.349a3.668 3.668 0 01-1.33-.864 3.678 3.678 0 01-.864-1.33c-.186-.477-.311-1.022-.349-1.82C.51 10.291.5 10.037.5 8c0-2.038.007-2.292.045-3.091.037-.8.163-1.343.349-1.821.187-.501.483-.955.864-1.33a3.673 3.673 0 011.33-.864C3.566.708 4.108.583 4.907.545 5.708.51 5.963.5 8 .5zm0 3.75a3.75 3.75 0 100 7.5 3.75 3.75 0 000-7.5zm4.875-.188a.938.938 0 10-1.875 0 .938.938 0 001.875 0zM8 5.75a2.25 2.25 0 110 4.5 2.25 2.25 0 010-4.5z"/></svg><svg viewBox="0 0 14 14" id="instagram__footer" xmlns="http://www.w3.org/2000/svg"><path d="M4.799 7a2.2 2.2 0 114.4 0 2.2 2.2 0 01-4.4 0zm-1.19 0a3.389 3.389 0 106.779 0A3.389 3.389 0 003.61 7zM9.73 3.477a.792.792 0 10.792-.792.792.792 0 00-.792.792zm-5.398 8.895c-.643-.03-.993-.136-1.225-.227a2.051 2.051 0 01-.76-.494 2.036 2.036 0 01-.493-.758c-.091-.232-.198-.582-.227-1.226-.032-.696-.039-.905-.039-2.667 0-1.763.007-1.971.039-2.667.029-.644.137-.993.227-1.226.12-.308.262-.528.493-.759.231-.231.45-.374.76-.494.232-.09.582-.198 1.225-.227.696-.032.905-.038 2.667-.038 1.762 0 1.97.007 2.667.038.643.03.993.138 1.226.227.308.12.528.263.759.494.231.23.374.451.494.76.09.231.197.581.227 1.225.032.696.038.904.038 2.667 0 1.762-.006 1.97-.038 2.667-.03.644-.137.993-.227 1.226-.12.308-.263.528-.494.758-.231.231-.451.374-.76.494-.232.09-.582.198-1.225.227-.696.032-.905.039-2.667.039-1.763 0-1.971-.007-2.667-.039zM4.278.44c-.703.032-1.183.143-1.603.306a3.237 3.237 0 00-1.169.762 3.225 3.225 0 00-.761 1.169c-.163.42-.275.9-.307 1.602-.032.704-.04.929-.04 2.72 0 1.793.008 2.018.04 2.722.032.703.144 1.182.307 1.602.168.434.394.803.761 1.17.368.366.735.591 1.17.76.42.163.899.275 1.602.307.704.032.928.04 2.72.04 1.793 0 2.018-.008 2.722-.04.702-.032 1.182-.144 1.602-.307a3.245 3.245 0 001.17-.76c.366-.368.591-.736.76-1.17.164-.42.275-.9.307-1.602.032-.704.04-.929.04-2.721s-.008-2.017-.04-2.721c-.032-.703-.143-1.183-.307-1.602a3.244 3.244 0 00-.76-1.17 3.23 3.23 0 00-1.17-.76c-.42-.164-.9-.276-1.602-.307C9.017.408 8.792.4 7 .4 5.206.4 4.981.407 4.277.44z"/></svg><svg viewBox="0 0 22 22" id="instagram__footer-middle" xmlns="http://www.w3.org/2000/svg"><path d="M7.334 11a3.667 3.667 0 117.333 0 3.667 3.667 0 01-7.333 0zm-1.982 0a5.648 5.648 0 1011.297 0 5.648 5.648 0 00-11.297 0zm10.2-5.872a1.32 1.32 0 101.321-1.32 1.32 1.32 0 00-1.32 1.32zM6.557 19.954c-1.072-.05-1.655-.228-2.043-.379-.513-.2-.88-.438-1.265-.822a3.394 3.394 0 01-.823-1.265c-.15-.387-.33-.97-.378-2.043-.053-1.16-.064-1.507-.064-4.445 0-2.937.011-3.285.064-4.445.049-1.073.229-1.655.378-2.043.2-.514.438-.88.823-1.265a3.39 3.39 0 011.265-.823c.388-.151.97-.33 2.043-.378 1.16-.054 1.508-.064 4.444-.064 2.937 0 3.285.011 4.446.064 1.072.048 1.654.228 2.043.378.513.199.88.438 1.265.823.385.385.623.751.823 1.265.15.387.33.97.378 2.043.054 1.16.064 1.508.064 4.445 0 2.938-.01 3.285-.064 4.445-.048 1.073-.228 1.656-.378 2.043-.2.514-.438.88-.823 1.265a3.419 3.419 0 01-1.265.822c-.387.151-.97.33-2.043.379-1.16.053-1.508.064-4.446.064-2.937 0-3.285-.01-4.444-.064zM6.466.067c-1.172.053-1.972.239-2.67.51a5.396 5.396 0 00-1.95 1.27A5.375 5.375 0 00.578 3.794c-.272.7-.458 1.499-.511 2.67C.012 7.638 0 8.013 0 11s.012 3.362.067 4.535c.053 1.171.239 1.97.51 2.67.281.723.657 1.338 1.27 1.949a5.409 5.409 0 001.948 1.268c.7.272 1.5.458 2.67.511C7.64 21.987 8.013 22 11 22c2.988 0 3.363-.012 4.536-.067 1.17-.053 1.97-.239 2.67-.51a5.411 5.411 0 001.948-1.27 5.39 5.39 0 001.27-1.948c.271-.7.458-1.499.51-2.67.054-1.174.066-1.548.066-4.535s-.012-3.362-.066-4.535c-.053-1.171-.239-1.971-.51-2.67a5.409 5.409 0 00-1.27-1.949A5.383 5.383 0 0018.207.578c-.7-.272-1.5-.459-2.67-.511C14.364.013 13.989 0 11 0 8.014 0 7.64.012 6.465.067z"/></svg><svg viewBox="0 0 16 16" id="map" xmlns="http://www.w3.org/2000/svg"><path d="M8 13.933l3.3-3.3a4.666 4.666 0 10-6.6 0l3.3 3.3zm0 1.886l-4.243-4.243a6 6 0 118.486 0L8 15.819zm0-7.152A1.333 1.333 0 108 6a1.333 1.333 0 000 2.667zM8 10a2.667 2.667 0 110-5.333A2.667 2.667 0 018 10z"/></svg><svg viewBox="0 0 18 22" id="map__footer" xmlns="http://www.w3.org/2000/svg"><path d="M9 18.9l4.95-4.95a7 7 0 10-9.9 0L9 18.9zm0 2.828l-6.364-6.364a9 9 0 1112.728 0L9 21.728zM9 11a2 2 0 100-4 2 2 0 000 4zm0 2a4 4 0 110-8 4 4 0 010 8z"/></svg><svg viewBox="0 0 4 5" id="news__arrow" xmlns="http://www.w3.org/2000/svg"><path d="M2.1 2.5L.45 4.15l.824.825L3.75 2.5 1.274.025.45.85 2.1 2.5z"/></svg><svg viewBox="0 0 49 16" id="news__next" xmlns="http://www.w3.org/2000/svg"><path d="M47 8l-7.048 7M47 8l-7.048-7M47 8H0" stroke="#2E2E2E" stroke-width="2"/></svg><svg viewBox="0 0 49 16" id="news__prev" xmlns="http://www.w3.org/2000/svg"><path d="M2 8l7.048 7M2 8l7.048-7M2 8h47" stroke="#2E2E2E" stroke-width="2"/></svg><svg viewBox="0 0 15 24" id="ok" xmlns="http://www.w3.org/2000/svg"><path d="M7.5 3.63c1.526 0 2.767 1.15 2.767 2.565 0 1.413-1.241 2.563-2.767 2.563-1.525 0-2.767-1.15-2.767-2.563C4.733 4.78 5.975 3.63 7.5 3.63zm0 8.756c3.686 0 6.684-2.777 6.684-6.191C14.184 2.778 11.186 0 7.5 0S.816 2.779.816 6.195c0 3.414 2.998 6.191 6.684 6.191zm2.704 5.053a13.074 13.074 0 003.88-1.49c.44-.256.752-.663.867-1.133.115-.469.025-.961-.252-1.369a1.879 1.879 0 00-.525-.514 2.034 2.034 0 00-.697-.29 2.11 2.11 0 00-.764-.019c-.254.04-.496.126-.714.253-2.738 1.595-6.262 1.594-8.998 0a2.053 2.053 0 00-.714-.253 2.11 2.11 0 00-.764.02c-.25.053-.488.15-.697.289a1.88 1.88 0 00-.525.514c-.277.408-.367.9-.252 1.37.115.469.426.876.866 1.133a13.089 13.089 0 003.88 1.489l-3.736 3.463a1.75 1.75 0 00-.574 1.283c0 .482.207.943.574 1.284.367.34.865.53 1.385.53a2.04 2.04 0 001.384-.531L7.5 20.066l3.673 3.402c.182.169.397.303.635.394a2.09 2.09 0 001.498 0 1.97 1.97 0 00.635-.394 1.81 1.81 0 00.425-.588 1.697 1.697 0 000-1.39 1.81 1.81 0 00-.425-.587l-3.736-3.464z"/></svg><svg viewBox="0 0 12 12" id="phone" xmlns="http://www.w3.org/2000/svg"><path d="M12 8.947v2.357a.667.667 0 01-.62.665c-.291.02-.53.031-.713.031C4.775 12 0 7.225 0 1.333 0 1.15.01.911.03.62A.667.667 0 01.697 0h2.357a.333.333 0 01.332.3 9.267 9.267 0 00.848 3.035.304.304 0 01-.098.378L2.697 4.741a8.698 8.698 0 004.562 4.563l1.027-1.436a.308.308 0 01.382-.1 9.268 9.268 0 003.033.847.333.333 0 01.3.332H12z"/></svg><svg viewBox="0 0 18 18" id="phone__footer" xmlns="http://www.w3.org/2000/svg"><path d="M18 13.42v3.536a1 1 0 01-.93.998c-.437.03-.794.046-1.07.046C7.163 18 0 10.837 0 2c0-.276.015-.633.046-1.07A1 1 0 011.044 0H4.58a.5.5 0 01.498.45c.023.23.044.413.064.552A13.9 13.9 0 006.35 5.003c.095.2.033.439-.147.567L4.045 7.112a13.047 13.047 0 006.844 6.844l1.54-2.154a.462.462 0 01.573-.149 13.9 13.9 0 004 1.205c.139.02.322.042.55.064a.5.5 0 01.449.498H18z"/></svg><svg viewBox="0 0 32 32" id="popup" xmlns="http://www.w3.org/2000/svg"><path opacity=".2" d="M1 1l15 15m15 15L16 16m0 0L31 1 1 31" stroke="#000"/></svg><svg viewBox="0 0 32 32" id="popup___close" xmlns="http://www.w3.org/2000/svg"><path opacity=".2" d="M1 1l15 15m15 15L16 16m0 0L31 1 1 31" stroke="#000"/></svg><svg viewBox="0 0 24 24" id="popup__arrow" xmlns="http://www.w3.org/2000/svg"><path d="M12 13.172l4.95-4.95 1.414 1.414L12 16 5.636 9.636 7.05 8.222l4.95 4.95z"/></svg><svg viewBox="0 0 24 24" id="popup__calendar" xmlns="http://www.w3.org/2000/svg"><path d="M17 3h4a1 1 0 011 1v16a1 1 0 01-1 1H3a1 1 0 01-1-1V4a1 1 0 011-1h4V1h2v2h6V1h2v2zm-2 2H9v2H7V5H4v4h16V5h-3v2h-2V5zm5 6H4v8h16v-8z" opacity=".5"/></svg><svg viewBox="0 0 24 24" id="popup__calendar-check" xmlns="http://www.w3.org/2000/svg"><path d="M9 1v2h6V1h2v2h4a1 1 0 011 1v16a1 1 0 01-1 1H3a1 1 0 01-1-1V4a1 1 0 011-1h4V1h2zm11 9H4v9h16v-9zm-4.964 1.136l1.414 1.414-4.95 4.95-3.536-3.536L9.38 12.55l2.121 2.122 3.536-3.536h-.001zM7 5H4v3h16V5h-3v1h-2V5H9v1H7V5z" opacity=".5"/></svg><svg viewBox="0 0 24 24" id="popup__minus" xmlns="http://www.w3.org/2000/svg"><path d="M5 11h14v2H5v-2z"/></svg><svg viewBox="0 0 24 24" id="popup__plus" xmlns="http://www.w3.org/2000/svg"><path d="M11 11V5h2v6h6v2h-6v6h-2v-6H5v-2h6z"/></svg><svg viewBox="0 0 24 34" id="popup__select" xmlns="http://www.w3.org/2000/svg"><path d="M12 25l-4.243-4.243 1.415-1.414L12 22.172l2.828-2.83 1.415 1.415L12 25zM12 11.828l-2.828 2.829-1.415-1.414L12 9l4.243 4.243-1.415 1.414L12 11.828z"/></svg><svg viewBox="0 0 24 24" id="popup__user" xmlns="http://www.w3.org/2000/svg"><path d="M4 22a8 8 0 0116 0h-2a6 6 0 10-12 0H4zm8-9c-3.315 0-6-2.685-6-6s2.685-6 6-6 6 2.685 6 6-2.685 6-6 6zm0-2c2.21 0 4-1.79 4-4s-1.79-4-4-4-4 1.79-4 4 1.79 4 4 4z" opacity=".5"/></svg><svg viewBox="0 0 24 24" id="popup__user-follow-" xmlns="http://www.w3.org/2000/svg"><path d="M14 14.252v2.09A6 6 0 006 22l-2-.001a8 8 0 0110-7.748v.001zM12 13c-3.315 0-6-2.685-6-6s2.685-6 6-6 6 2.685 6 6-2.685 6-6 6zm0-2c2.21 0 4-1.79 4-4s-1.79-4-4-4-4 1.79-4 4 1.79 4 4 4zm5.793 8.914l3.535-3.535 1.415 1.414-4.95 4.95-3.536-3.536 1.415-1.414 2.12 2.121h.001z" opacity=".5"/></svg><svg viewBox="0 0 7 10" id="right__footer" xmlns="http://www.w3.org/2000/svg"><path d="M3.672 5L.843 2.172 2.257.757 6.5 5 2.257 9.243.843 7.828 3.672 5z"/></svg><svg viewBox="0 0 149 145" id="room__blog" xmlns="http://www.w3.org/2000/svg"><g clip-path="url(#beclip0_528_2339)"><path d="M0 21.877c1.822-2.272 3.098-2.346 5.212-.22 8.492 8.538 17.021 17.076 25.514 25.65 2.223 2.272 4.665 3.335 7.836 2.675 1.75-.366 3.572-.476 5.322-.77 1.275-.219 2.296.147 3.17 1.027l4.739 4.764c1.093 1.099 1.348 2.272.583 3.7-.182.404-.036 1.246.292 1.576 1.53 1.686 3.207 3.262 4.774 4.91.875.953 1.094 2.053.365 3.225-.656 1.026-1.64 1.393-2.77 1.063-.584-.147-1.13-.55-1.568-.99-1.64-1.575-3.244-3.224-4.847-4.836-1.385-1.393-1.968-3.042-1.75-5.057.037-.587-.255-1.283-.62-1.76-1.275-1.905-2.952-2.564-5.32-1.978-1.896.44-3.937.513-5.905.403-2.77-.147-5.103-1.466-7.035-3.408a6182.151 6182.151 0 01-26.79-26.86C.73 24.515.402 23.891 0 23.342v-1.465zM134.858 10.04c5.504.037 9.368.953 12.684 3.555 1.859 1.466 1.932 2.931.256 4.69-.146.147-.256.294-.401.404-40.604 40.82-81.207 81.606-121.81 122.463-3.244 3.262-6.962 4.691-11.481 3.298-6.78-2.088-9.404-10.81-4.957-16.343a24.832 24.832 0 011.859-2.052c12.32-12.385 24.639-24.734 36.922-37.157 3.098-3.151 6.524-4.434 10.788-2.895.365.147 1.02-.073 1.349-.366 1.348-1.246 2.588-2.638 3.936-3.884.693-.66.62-1.136.073-1.832-3.098-4.031-2.952-8.685.656-12.276 14.543-14.621 29.05-29.279 43.774-43.716 5.577-5.46 11.955-9.968 19.5-12.35 2.624-.879 5.431-1.245 6.852-1.539zm7.399 6.377c-4.082-1.686-7.945-1.356-11.845-.184-7.035 2.126-12.976 6.23-18.151 11.287-14.689 14.4-29.123 29.022-43.665 43.57-1.932 1.905-1.932 3.664-.183 5.972 2.041 2.712 1.932 5.607-.4 8.025a251.875 251.875 0 01-4.41 4.434c-1.787 1.76-3.864 2.382-6.27 1.503-2.15-.807-3.863-.293-5.503 1.355-12.466 12.569-24.967 25.102-37.433 37.634-.4.403-.838.843-1.166 1.282-2.223 2.968-.802 7.182 2.734 8.245 2.405.696 4.191-.33 5.831-1.979C61.598 97.546 101.4 57.531 141.237 17.516c.291-.33.583-.66 1.02-1.1zM134.457 145c-3.644-.073-6.196-1.209-8.31-3.335-14.652-14.731-29.304-29.425-43.92-44.192-.474-.477-1.057-1.246-1.02-1.832.036-.88.4-2.016 1.02-2.456.62-.44 1.786-.33 2.661-.11.583.147 1.057.807 1.53 1.283 14.325 14.401 28.685 28.802 43.01 43.24 1.603 1.612 3.389 2.602 5.722 1.942a5.234 5.234 0 002.843-8.172c-.401-.549-.875-1.026-1.385-1.502L93.49 86.516c-1.786-1.795-2.078-3.298-.911-4.544 1.202-1.282 2.77-.989 4.592.88l43.41 43.643c3.863 3.884 4.665 8.721 2.187 13.192-1.713 3.188-5.285 5.276-8.311 5.313zM55.182 37.267c-.219 1.539-.547 3.59-.729 5.68-.036.66.292 1.429.656 2.015.328.55.875 1.063 1.422 1.43.546.329 1.239.695 1.858.622 1.86-.147 3.463.366 4.775 1.649a186.137 186.137 0 015.358 5.387c1.24 1.282 1.349 2.821.328 3.92-1.057 1.136-2.66 1.063-3.973-.256a291.13 291.13 0 01-4.738-4.764c-.583-.586-1.057-.88-1.859-.33-1.166.807-2.333.514-3.28-.403a171.26 171.26 0 01-5.14-5.166c-.838-.88-1.056-1.906-.838-3.115.328-1.869.474-3.774.839-5.643.51-2.895-.474-5.204-2.515-7.22C38.78 22.537 30.252 13.925 21.723 5.35c-.401-.403-.839-.843-1.167-1.32-.765-1.099-.656-2.235.219-3.187.911-.953 2.005-1.136 3.171-.403.437.256.838.66 1.203 1.026 8.674 8.72 17.35 17.442 26.024 26.127 2.515 2.528 3.973 5.496 4.009 9.674z"/><path d="M31.637 41.298c-.948-.587-1.713-.88-2.223-1.393-7.254-7.219-14.47-14.51-21.687-21.766-1.276-1.283-1.349-2.785-.292-3.885 1.094-1.172 2.625-1.099 3.973.257 7.18 7.182 14.397 14.438 21.578 21.656.874.88 1.494 1.98.802 3.115-.474.806-1.385 1.32-2.151 2.016zM40.749 31.147c-.037 2.419-2.114 3.665-3.754 2.749-.547-.294-.984-.77-1.422-1.21C28.648 25.761 21.76 18.835 14.87 11.91c-.291-.293-.62-.623-.874-.952-.875-1.136-.802-2.492.146-3.445.947-.953 2.26-1.026 3.426-.183.364.256.656.586.947.88 6.925 6.962 13.85 13.887 20.74 20.886.692.697 1.166 1.576 1.494 2.052z"/></g><defs><clipPath id="beclip0_528_2339"><path d="M0 0h149v145H0z"/></clipPath></defs></svg><svg viewBox="0 0 55 48" id="room__cofe" xmlns="http://www.w3.org/2000/svg"><g clip-path="url(#bfclip0_527_1479)"><path d="M0 41.89c.373-.616.933-.774 1.636-.76 4.29.03 8.595.015 12.885.015h.732c-.23-.186-.359-.315-.502-.43-5.137-4.379-7.749-9.946-7.863-16.686a61.665 61.665 0 010-2.305c.028-1.917 1.463-3.377 3.386-3.42 1.105-.028 2.224 0 3.329 0h28.569c2.238 0 3.659 1.417 3.673 3.635v1.073c0 .144.015.287.029.373 1.019-.172 2.023-.387 3.028-.501 1.205-.143 2.396 0 3.5.572 1.852.959 2.454 2.633 2.598 4.566.158 2.19-.775 3.906-2.325 5.352-1.88 1.774-4.146 2.92-6.557 3.764-1.88.658-3.831 1.116-5.754 1.689a2.52 2.52 0 00-.818.443c-.674.573-1.306 1.188-2.038 1.86h13.746c.604 0 1.12.115 1.364.716.244.616-.043 1.06-.474 1.46-.789.758-1.55 1.546-2.324 2.304-1.593 1.574-3.516 2.361-5.74 2.361H8.638c-2.152 0-4.032-.73-5.582-2.218-.904-.83-1.765-1.703-2.626-2.576-.157-.157-.287-.358-.43-.53v-.758zm26.36-21.325H10.517c-.918 0-1.378.43-1.363 1.331.028 1.517-.015 3.049.186 4.537.861 6.411 4.19 11.22 9.772 14.483.215.129.502.2.76.2 4.32.015 8.624.015 12.943 0 .259 0 .531-.071.76-.186 4.263-2.418 7.218-5.925 8.883-10.519.976-2.704 1.148-5.495 1.076-8.329-.029-1.145-.359-1.517-1.507-1.517H26.36zM3.988 43.435c.115.143.172.229.244.3 1.263 1.374 2.827 1.99 4.692 1.99 11.608-.015 23.231 0 34.84-.015.43 0 .86-.014 1.277-.086 1.492-.229 2.669-.987 3.673-2.19H3.99zm38.384-7.47c-.029 0 .029.013.072 0 2.18-.63 4.304-1.403 6.299-2.52 1.09-.615 2.11-1.345 2.927-2.304.961-1.13 1.22-2.433.904-3.85-.301-1.359-1.12-2.032-2.511-2.117-1.291-.086-2.511.214-3.745.558-.445.128-.617.357-.66.801a18.005 18.005 0 01-1.32 5.324c-.589 1.402-1.306 2.748-1.966 4.107zM25.211 11.392a6.62 6.62 0 011.335-4.036c1.234-1.675 1.262-3.692.086-5.438-.43-.63-.345-1.317.2-1.703.56-.387 1.206-.244 1.665.386 1.708 2.29 1.708 5.624-.043 8-.961 1.302-1.205 2.72-.732 4.25.13.43.388.845.617 1.231.402.659.345 1.317-.2 1.703-.546.387-1.22.23-1.68-.386-.86-1.202-1.262-2.548-1.248-4.007zM36.661 4.551c0 1.517-.43 2.877-1.334 4.093-1.234 1.674-1.263 3.707-.1 5.438.43.63.344 1.317-.201 1.703-.546.387-1.206.23-1.68-.386-1.692-2.247-1.707-5.61.015-7.957 1.033-1.403 1.263-2.92.675-4.551-.144-.372-.374-.716-.589-1.073-.359-.587-.258-1.246.258-1.618.531-.372 1.177-.257 1.608.3.918 1.203 1.348 2.563 1.348 4.051zM22.902 4.551c0 1.517-.43 2.877-1.335 4.093-1.234 1.674-1.262 3.707-.1 5.438.43.63.344 1.317-.201 1.703-.545.387-1.205.23-1.679-.386-1.679-2.233-1.707-5.61-.014-7.914 1.047-1.417 1.306-2.934.703-4.594-.144-.372-.373-.73-.588-1.073-.36-.587-.259-1.246.258-1.618.53-.372 1.176-.257 1.607.3.933 1.203 1.349 2.563 1.349 4.051z"/></g><defs><clipPath id="bfclip0_527_1479"><path d="M0 0h55v48H0z"/></clipPath></defs></svg><svg viewBox="0 0 57 50" id="room__fen" xmlns="http://www.w3.org/2000/svg"><path d="M40.695 41.597v7.13c0 .783-.382 1.256-.988 1.273-.62.016-1.035-.49-1.035-1.29 0-2.17-.016-4.356.016-6.526 0-.587-.111-.897-.7-1.175-2.007-.897-3.154-3.149-2.596-5.335 1.035-4.194 1.083-8.452.987-12.727-.032-1.403-.86-2.35-2.038-2.92-.956-.474-1.99-.817-3.01-1.16-2.819-.93-5.67-1.729-8.615-2.104-.685-.082-1.322-.033-1.975.245-2.93 1.24-5.892 2.431-8.838 3.638-1.13.457-1.72.05-1.72-1.207V1.426c0-1.24.605-1.665 1.72-1.208 2.691 1.093 5.398 2.138 8.058 3.329 1.337.603 2.627.701 3.997.391 3.663-.832 7.31-1.68 10.972-2.529C38.051.675 41.172-.075 44.39.006c3.63.098 7.15.702 10.366 2.562.621.359 1.21.783 1.736 1.272.255.245.478.686.478 1.045.032 3.622.048 7.244 0 10.866 0 .425-.303.93-.605 1.24-1.465 1.55-3.28 2.546-5.24 3.264-.445.163-.907.31-1.353.44-1.688.522-2.564 1.697-2.596 3.492-.016 1.338 0 2.692-.016 4.03-.032 3.166-.493 6.282-1.306 9.333-.684 2.53-2.15 3.802-4.681 4.014-.16 0-.271.016-.478.033zM22.413 14.593c.16.033.27.065.382.082 3.185.375 6.275 1.24 9.3 2.267 1.29.441 2.596.93 3.775 1.616 1.56.93 2.468 2.415 2.5 4.307.08 4.422.063 8.828-1.02 13.151-.43 1.73.765 3.264 2.5 3.427a6.42 6.42 0 001.482-.016c1.178-.131 2.07-.784 2.34-1.942.494-2.187.988-4.405 1.211-6.64.223-2.17.16-4.39.191-6.576.032-2.807 1.497-4.814 4.093-5.613.398-.114.796-.278 1.194-.375.398-.098.526-.31.51-.735-.016-4.634-.016-9.284 0-13.918 0-.44-.16-.587-.542-.701-1.927-.555-3.885-.816-5.876-.865-3.153-.098-6.179.653-9.22 1.37-3.25.767-6.482 1.567-9.73 2.301-1.02.229-2.055.31-3.106.473.016 2.807.016 5.564.016 8.387zm-10.16 3.557c.127-.016.16 0 .191-.016 2.516-1.028 5.048-2.073 7.58-3.084.35-.147.35-.375.35-.67 0-2.642-.015-5.286 0-7.929 0-.408-.11-.604-.493-.767-2.389-.962-4.745-1.941-7.134-2.904-.16-.065-.319-.098-.51-.163.016 5.221.016 10.36.016 15.533zm40.688-1.012c.669-.538 1.226-.946 1.752-1.42.143-.13.254-.407.254-.636a951.77 951.77 0 000-9.528c0-.163-.031-.408-.143-.49-.573-.408-1.194-.767-1.863-1.19v13.264zM5.788 12.635c-.765-.277-1.465-.457-2.086-.783-.765-.376-1.45-.555-2.23-.033-.478.31-1.067.082-1.322-.408-.254-.473-.159-1.011.319-1.338.923-.669 1.943-.897 3.041-.538.414.147.813.31 1.195.522.669.359 1.274.44 1.943-.033.477-.326 1.05-.13 1.337.327.287.456.207 1.093-.286 1.387-.606.359-1.274.603-1.911.897zM5.74 6.37c-.764-.294-1.465-.49-2.118-.816-.732-.36-1.385-.49-2.133-.017-.494.327-1.067.098-1.338-.375-.287-.49-.16-1.044.334-1.387.924-.652 1.927-.865 2.994-.506.446.147.892.36 1.306.571.621.327 1.178.376 1.784-.048.51-.36 1.098-.18 1.4.31.288.489.192 1.125-.35 1.435-.557.343-1.226.555-1.879.833zM2.475 15.458c.797.293 1.53.522 2.214.848.669.326 1.274.457 1.943-.032.478-.343 1.05-.147 1.353.326.287.457.191 1.06-.27 1.403-.892.685-1.88.93-2.962.555-.398-.13-.78-.31-1.147-.506-.685-.375-1.338-.49-2.07-.016-.51.342-1.115.114-1.386-.376-.27-.489-.159-1.093.367-1.37.605-.326 1.29-.555 1.958-.832z"/></svg><svg viewBox="0 0 38 52" id="room__fridge" xmlns="http://www.w3.org/2000/svg"><path d="M0 51.733V0h37.635v51.733H0zm35.26-2.359V21.177H2.39v28.197h32.87zM2.39 2.344V18.76h32.87V2.345H2.39z"/><path d="M7.08 23.551h2.3v11.68h-2.3v-11.68zM7.08 9.424h2.3v6.99h-2.3v-6.99z"/></svg><svg viewBox="0 0 181 135" id="room__icon2" xmlns="http://www.w3.org/2000/svg"><g clip-path="url(#biclip0_530_2350)"><path d="M36.048 9.949c-4.16 7.495-7.067 14.41-8.9 21.057-.984 3.39-1.79 6.915-2.55 10.35-.357 1.562-.715 3.168-1.118 4.73l-.179.669h-1.833l-4.204-.268c-4.294-.268-8.722-.535-13.06-.848-2.102-.133-3.4.491-4.249 2.142v7.183c.045.133.045.312.09.446.089.401.178.848.223 1.338.492 8.03 1.744 15.169 3.846 21.816 7.693 24.181 23.257 40.911 46.156 49.833 9.437 3.659 19.992 5.755 32.291 6.425 15.072.803 28.445-.491 40.878-4.016 17.98-5.041 32.336-15.168 42.757-30.114 9.884-14.187 14.714-31.14 14.759-51.84 0-.982-.268-1.83-.85-2.365-.581-.535-1.386-.848-2.415-.803-4.204.09-8.363.357-12.254.58-1.655.09-3.31.268-4.965.446-.76.09-1.52.134-2.281.223l-.805.09-.179-.804c-.044-.178-.044-.312-.089-.401-.045-.223-.09-.402-.09-.535-1.789-12.18-5.858-24.047-12.165-35.334-1.162-2.097-2.37-2.632-4.338-1.963-8.498 2.944-16.011 6.513-22.944 10.886-1.073.669-2.146 1.383-3.22 2.096-.492.357-1.028.67-1.565 1.026l-.716.447-.492-.67c-.178-.223-.313-.446-.492-.624a20.76 20.76 0 01-.894-1.205c-4.83-6.647-10.6-12.938-17.264-18.648-1.878-1.606-3.22-1.695-4.696-.312-4.249 4.015-8.05 7.628-11.628 11.465-1.834 1.963-3.533 4.15-5.188 6.29-.76.982-1.52 1.964-2.326 2.945l-.492.625-.67-.446a3.331 3.331 0 00-.537-.313c-.403-.223-.76-.49-1.163-.758-7.559-5.13-16.101-9.413-25.404-12.67-2.415-.893-3.488-.491-4.785 1.829zM78.76 128.397c-20.931-1.204-38.955-8.967-52.015-22.396-13.328-13.696-20.484-32.3-20.663-53.803v-.982l.984.09c1.655.133 3.265.267 4.875.4 3.623.313 7.067.58 10.51 1.027 10.734 1.383 20.082 4.461 28.624 9.324 1.879 1.07 2.594 2.365 2.46 4.55-.85 15.214 2.773 29.535 10.734 42.607 3.533 5.799 7.96 11.197 13.149 16.016.313.267.626.535 1.073.892.269.178.537.402.85.669l2.192 1.74-2.773-.134zm79.743-75.62c3.489-.446 6.933-.758 10.6-1.07a208.03 208.03 0 005.009-.446l.984-.09-.045 1.027c-.536 18.871-5.322 34.173-14.714 46.8-13.015 17.532-31.754 27.169-57.158 29.533l-2.191.223 1.431-1.651c1.163-1.383 2.415-2.766 3.578-4.059 2.549-2.9 5.233-5.845 7.514-9.012 10.107-13.786 14.848-29.534 13.998-46.889-.134-2.632.626-4.015 2.818-5.264 8.408-4.685 17.89-7.718 28.176-9.101zm-42.533-25.83c7.335-5.22 15.162-9.325 23.928-12.581l.716-.268.357.67c5.636 10.528 9.079 21.146 10.511 32.478l.089.803-.805.178c-8.542 1.785-16.101 4.55-23.212 8.477l-1.073.58-.224-1.205c-1.968-10.038-5.412-19.184-10.6-27.973l-.402-.713.715-.447zm-47.184 6.602c5.01-9.369 11.718-17.756 20.394-25.608.135-.134.313-.267.492-.401.09-.045.18-.134.269-.223l.581-.491.582.49c5.053 4.417 9.615 9.28 13.506 14.455 8.543 11.288 13.731 22.575 15.833 34.531 5.054 28.999-4.517 52.956-28.4 71.158-.537.402-1.029.625-1.52.625-.493 0-.985-.223-1.566-.625C72.9 115.549 63.196 100.202 60.11 81.866c-2.684-16.284.223-32.568 8.676-48.317zM40.028 14.812l.358-.67.716.268c8.587 3.123 16.414 7.227 23.927 12.537l.671.49-.402.714c-5.278 9.19-8.722 18.247-10.51 27.794l-.224 1.115-1.029-.446c-1.252-.535-2.46-1.07-3.667-1.606-2.684-1.204-5.233-2.32-7.827-3.301-2.639-.937-5.278-1.695-8.095-2.498-1.253-.357-2.505-.714-3.802-1.071l-.715-.223.089-.759c1.431-11.153 4.875-21.682 10.51-32.344z"/></g><defs><clipPath id="biclip0_530_2350"><path d="M0 0h181v135H0z"/></clipPath></defs></svg><svg viewBox="0 0 136 150" id="room__icon3" xmlns="http://www.w3.org/2000/svg"><g clip-path="url(#bjclip0_530_2352)"><path d="M125.645.15a1.865 1.865 0 01-.487-.15H10.73c-.6.261-1.238.485-1.838.672-1.501.522-2.89 1.045-4.052 1.791C1.688 4.628.038 7.913 0 12.242v124.471c0 3.695.75 6.27 2.401 8.435 2.476 3.21 5.74 4.777 9.98 4.815 2.513.037 5.102.037 7.578 0h103.173c5.44 0 9.229-2.202 11.63-6.718 1.088-2.09 1.238-4.367 1.238-6.308V29.298c0-1.68 0-3.359-.038-5.038A383.59 383.59 0 01136 12.914c.188-6.57-4.164-11.906-10.355-12.765zm4.127 136.75c0 1.866-.375 3.284-1.088 4.255-.75 1.045-1.988 1.604-3.039 2.09-.187.074-.375.186-.563.261-.412.224-.862.261-1.275.261-.188 0-.375 0-.563-.037H13.169c-1.013 0-2.252-.038-3.377-.448-1.988-.709-3.264-2.351-3.564-4.703a5.46 5.46 0 01-.038-1.343v-.299V37.099h123.62v17.168c0 27.096 0 55.089-.038 82.633zm.038-114.469v6.009c0 .298 0 1.232-.676 1.866-.375.336-.9.523-1.5.523H6.228v-1.307-5.262c0-4.33-.038-8.435.037-12.578.038-2.986 2.289-5.225 5.44-5.45.45-.036.863-.036 1.276-.036h110.788c3.715.112 5.966 2.314 6.041 5.897V22.43z"/><path d="M68.057 49.191h-.188c-23.035.112-41.194 18.214-41.344 41.242.338 22.804 18.721 41.167 41.082 41.167h.563c22.998-.336 41.494-18.923 41.231-41.428-.225-22.655-18.759-40.98-41.344-40.98zm34.853 43.556c-.112 7.539-3.639 15.676-9.379 21.759-6.565 6.942-15.532 10.824-25.286 10.936h-.376c-9.454 0-18.27-3.658-24.836-10.264-6.115-6.158-9.755-14.332-10.055-22.431l-.075-2.351 2.064 1.194c.413.224.788.448 1.2.71.826.484 1.651.97 2.477 1.417 6.828 3.807 13.468 3.845 20.296 0 .3-.149.6-.335.9-.522 1.914-1.12 3.902-2.24 6.454-2.463 3.489-.336 6.49.335 9.116 2.015 3.827 2.463 7.541 3.695 11.33 3.732 3.977.038 7.467-.858 10.693-2.799a50.077 50.077 0 012.401-1.38c.375-.225.788-.449 1.163-.673l1.989-1.157-.076 2.277zm-.487-8.734l-.826.448c-.863.448-1.725.896-2.55 1.381a116.455 116.455 0 01-5.703 2.949c-2.101 1.008-4.202 1.53-6.266 1.53-2.363 0-4.69-.672-6.978-1.978-2.701-1.568-5.477-3.21-8.666-3.658-5.365-.746-9.792.075-13.62 2.5-2.888 1.83-6.415 3.621-10.58 2.912a20.885 20.885 0 01-4.989-1.53c-1.876-.858-3.752-1.866-5.552-2.837-.788-.41-1.539-.82-2.326-1.231l-.826-.448.15-.933c1.989-13.362 15.645-27.731 34.29-27.731h.076c11.218.037 19.021 4.964 23.598 9.07 5.74 5.187 9.605 11.98 10.618 18.66l.15.896zM94.394 15.414H90.268c-.564 0-1.126 0-1.651.038-1.726.074-2.964 1.306-3.002 2.985-.037 1.792 1.2 3.06 2.964 3.098 3.001.075 6.04.075 9.042 0 1.763-.037 3.038-1.38 3.001-3.06-.038-1.717-1.35-2.949-3.151-3.023-1.051-.038-2.064-.038-3.077-.038zM109.175 18.438c-.038 1.716 1.125 2.985 2.851 3.097 1.013.075 2.026.038 3.114.038h3.001c1.126 0 2.214.037 3.302-.038a3.026 3.026 0 002.814-3.023c-.038-1.642-1.276-2.948-2.852-2.986a190.447 190.447 0 00-4.689-.074c-1.539 0-3.077.037-4.652.074-1.614 0-2.852 1.27-2.889 2.912z"/></g><defs><clipPath id="bjclip0_530_2352"><path d="M0 0h136v150H0z"/></clipPath></defs></svg><svg viewBox="0 0 54 54" id="room__kyxny" xmlns="http://www.w3.org/2000/svg"><path d="M53.875 24.281c-.534-5.705-2.756-10.777-6.594-15.091C42.206 3.499 35.767.422 28.147.042A23.483 23.483 0 0026.741 0v.028V0c-4.4 0-8.576 1.068-12.4 3.176-3.795 2.08-6.888 4.75-9.194 7.925C2.827 14.276 1.239 18.042.423 22.3c-.14.702-.225 1.433-.31 2.122l-.126.983v3.162l.127.983c.084.703.169 1.42.31 2.122.885 4.51 2.6 8.46 5.117 11.747 2.516 3.274 5.876 5.958 10.01 7.995 2.882 1.42 6.059 2.249 9.475 2.474.084 0 .169.028.267.056.042.014.085.028.127.028h3.191c.281-.042.576-.07.858-.099.604-.07 1.237-.14 1.855-.238 6.214-1.054 11.444-3.864 15.564-8.39 5.384-5.9 7.732-12.955 6.987-20.964zm-1.786 2.74c-.028 13.813-11.275 25.04-25.052 25.04h-.085C13.132 52.019 1.9 40.764 1.927 26.965 1.97 13.166 13.19 1.939 26.967 1.939h.084c13.848.042 25.067 11.297 25.038 25.082z"/><path d="M36.398 26.333c1.532-.956 2.278-2.431 2.348-4.637.056-1.813-.352-3.71-1.237-5.79-.675-1.573-1.968-2.417-3.768-2.417h-.014c-1.814 0-3.163.886-3.81 2.516-.703 1.756-1.448 4.117-1.097 6.702.225 1.574.914 2.726 2.123 3.527.253.169.324.323.31.618A786.376 786.376 0 0031 32.544c-.029.703-.057 1.448-.099 2.249-.014.337-.028.716-.056 1.124a244.62 244.62 0 00-.197 4.58c-.014.464-.014 1.054.155 1.574.38 1.195 1.602 2.052 2.924 2.052.169 0 .323-.014.492-.042 1.603-.267 2.657-1.504 2.629-3.05-.028-1.32-.099-2.655-.169-3.962l-.084-1.77-.056-1.321c-.099-2.361-.211-4.792-.31-7.18 0-.155.07-.408.17-.464zm-2.165-.281l.253 5.466.084 1.868v.07c.029.703.07 1.42.099 2.122.084 1.715.169 3.485.239 5.228.014.435-.099.8-.324 1.04-.196.21-.464.309-.787.309-.154 0-.323-.029-.492-.07-.52-.155-.773-.563-.745-1.251.042-1.138.098-2.29.155-3.415l.084-1.784c.14-3.204.295-6.408.436-9.611.028-.549-.183-.914-.619-1.097-1.293-.52-1.884-1.531-1.954-3.274-.056-1.756.464-3.4 1.04-4.918.324-.857 1.04-1.32 2.039-1.32h.014c.97 0 1.687.463 2.01 1.306.59 1.532 1.125 3.204 1.04 4.975-.056 1.194-.266 2.107-1.124 2.754-.21.154-.464.309-.76.435-.477.225-.702.604-.688 1.167zM24.73 23.48c.393-.38.576-.787.576-1.349-.015-1.56-.015-3.133-.015-4.665v-2.642-.112c0-.21.015-.436-.098-.59-.112-.155-.394-.534-.717-.59-.028 0-.056-.014-.098-.014-.253 0-.577.154-.773.35-.197.212-.226.605-.24.83 0 1.026-.014 2.066-.014 3.063 0 1.293 0 2.614-.014 3.92 0 .24-.126.534-.295.717a40.109 40.109 0 01-1.884 1.897c-.365.351-.52.759-.492 1.335.099 1.84.197 3.696.281 5.508.029.632.057 1.25.099 1.883v.07l.084 1.77c.099 1.884.197 3.823.281 5.734.014.253 0 .618-.126.941-.155.38-.535.633-.984.633-.099 0-.183-.014-.281-.028-.633-.155-.942-.647-.9-1.406.239-4.791.506-9.948.773-15.175.028-.492-.113-.871-.436-1.195-.267-.267-.548-.534-.815-.8-.366-.366-.745-.76-1.14-1.125-.224-.21-.322-.435-.308-.773.014-2.332.028-4.623-.014-6.941 0-.365-.17-.773-.408-1.012-.113-.098-.31-.168-.548-.168-.127 0-.268.014-.38.056-.38.112-.576.464-.576.998v1.7c0 1.995 0 4.047.014 6.084 0 .365.239.745.435.956.59.66 1.238 1.278 1.856 1.868.267.253.366.492.352.858-.211 3.794-.394 7.658-.577 11.395l-.056 1.11-.042.66c-.042.633-.084 1.28-.056 1.926a3.064 3.064 0 002.91 2.979h.169c1.602 0 2.867-1.11 3.036-2.642.085-.829.028-1.7-.014-2.53l-.042-.73c-.084-1.742-.169-3.513-.253-5.227-.113-2.332-.24-4.735-.337-7.11-.015-.155.084-.393.224-.534a26.083 26.083 0 011.842-1.883zM40.04 15.05a.942.942 0 00-.577.21c-.435.351-.464.913-.056 1.504.14.182.281.379.408.562.31.421.647.857.9 1.32 3.163 5.523 3.177 11.101.042 16.595-.45.773-1.04 1.49-1.617 2.192-.225.281-.464.562-.689.843-.267.352-.506.689-.295 1.167.155.365.45.576.815.576.324 0 .647-.155.928-.45 3.416-3.583 5.132-7.855 5.118-12.703-.127-4.341-1.463-8.023-4.077-11.255-.267-.38-.577-.562-.9-.562zM15.267 37.967c-.084-.084-.169-.182-.253-.28-4.035-4.736-5.09-10.16-3.15-16.132.521-1.574 1.379-2.95 2.067-3.977.183-.28.268-.576.211-.843a.938.938 0 00-.421-.59 1.016 1.016 0 00-.52-.154c-.324 0-.633.182-.858.506-2.207 3.119-3.332 6.561-3.374 10.229 0 3.92 1.026 7.307 3.107 10.37.534.787 1.18 1.518 1.8 2.234.084.099.168.197.266.295.225.253.478.38.76.38.239 0 .45-.099.646-.267.408-.366.408-.928.014-1.42-.084-.112-.196-.238-.295-.35zM20.976 11.986c.112 0 .225-.014.337-.042.197-.057.394-.113.577-.183.056-.014.112-.042.182-.056 1.575-.506 3.163-.773 4.71-.773.323 0 .647.014.956.028a25.84 25.84 0 012.334.295c.225.028.45.07.675.099.07.014.14.014.21.014.605 0 1.04-.394 1.04-.942 0-.351-.154-.787-.913-.97a18.177 18.177 0 00-4.049-.463c-1.125 0-2.263.112-3.374.337-1.012.197-2.039.52-2.938.801-.267.084-.464.239-.577.464a1.005 1.005 0 00-.042.759c.113.393.436.632.872.632z"/><path d="M17.967 21.386c0 .155 0 .324.042.478.127.436.422.675.858.703h.07a.86.86 0 00.857-.604c.085-.225.099-.478.099-.689v-2.36-.844-.843-2.403c0-.196-.014-.463-.085-.688-.126-.408-.45-.632-.871-.632h-.042c-.464.014-.774.28-.886.73-.042.155-.042.31-.042.464V21.386zM20.666 21.653c.084.562.45.914.956.914h.07c.535-.028.886-.408.886-.984.014-.843.014-1.7.014-2.543v-1.11-.97c0-.829 0-1.7-.014-2.543-.014-.548-.394-.942-.928-.956h-.028c-.464 0-.843.338-.942.857-.028.141-.028.296-.028.436V21.246c0 .14-.014.267.014.407zM28.905 42.983h-.084c-.408.015-.816.043-1.237.07-.183.015-.366.029-.563.029-.183-.014-.365-.014-.548-.028a37.111 37.111 0 00-1.28-.07h-.084c-.618 0-.998.309-1.054.829a.98.98 0 00.21.744c.183.211.437.323.76.337.647.029 1.321.029 1.996.029.647 0 1.294-.014 1.954-.029.338-.014.605-.126.788-.337.168-.182.239-.435.225-.716-.043-.534-.45-.858-1.083-.858z"/></svg><svg viewBox="0 0 53 102" id="room__svg-next" xmlns="http://www.w3.org/2000/svg"><path opacity=".3" d="M1 101l50-50L1 1" stroke="#fff" stroke-width="2"/></svg><svg viewBox="0 0 53 102" id="room__svg-prev" xmlns="http://www.w3.org/2000/svg"><path opacity=".3" d="M52 101L2 51 52 1" stroke="#fff" stroke-width="2"/></svg><svg viewBox="0 0 51 51" id="room__tapok" xmlns="http://www.w3.org/2000/svg"><path d="M34.828.481c-2.776.494-4.727 2.14-5.778 4.899-.675 1.76-.95 3.734-.875 6.202.012.342-.038.772-.526 1.101-.25.178-.375.456-.362.836 0 .177.025.367.037.557l.038.38.262 3.924c.175 2.696.363 5.48.55 8.228.038.607.363.949.976 1.038.075.012.15.025.213.037.025 0 .062.013.087.013l.388.076.025.393c.025.354.05.696.063 1.038.05.734.1 1.493.125 2.24.037 1.532.062 3.089.087 4.595.038 2.152.075 4.38.138 6.557.1 3.456 1.726 5.987 4.828 7.544.562.279 1.188.443 1.863.62.288.076.575.152.863.241h1.764a6.36 6.36 0 01.425-.089c.337-.076.663-.139.963-.24 1.776-.57 3.19-1.468 4.215-2.684 1.013-1.215 1.663-2.76 1.913-4.62.225-1.62.35-3.291.476-4.899.05-.57.087-1.164.137-1.76.163-1.986.338-4.012.488-5.974.063-.848.138-1.709.2-2.557l.025-.354.338-.089c.663-.177.95-.304 1.1-.48.138-.165.213-.47.25-1.115l.3-4.367c.163-2.418.326-4.848.501-7.266.013-.139.038-.265.063-.38 0-.025.012-.05.012-.075v-.836c-.175-.342-.338-.582-.638-.709-.338-.152-.563-.519-.65-.835-.113-.43-.2-.86-.3-1.279-.15-.696-.3-1.367-.513-2.012-.9-2.76-2.477-4.836-4.69-6.203C42.182.9 39.88.253 37.429.253c-.85 0-1.725.076-2.6.228zM46.46 28.215l-.075.836c-.05.607-.113 1.19-.15 1.772-.075.911-.138 1.848-.213 2.747a237.132 237.132 0 01-.475 5.81c-.025.24-.05.48-.063.734-.137 1.468-.275 3-.675 4.43-.738 2.595-3.252 4.405-6.103 4.405-1.389 0-2.677-.43-3.74-1.24-1.788-1.33-2.664-3.101-2.702-5.393a814.78 814.78 0 00-.25-9.734l-.112-4.038v-.227-.634h14.62l-.062.532zm2.026-6.595l-.225 3.494-.038.468H30.126l-.038-.468-.187-2.696-.05-.785-.038-.544h18.698l-.025.531zm.488-7.152l-.038.545L48.8 17.1l-.1 1.43-.025.444-.45.025c-.063 0-.126.013-.188.013-.138.012-.263.012-.4.012h-6.58c-3.288 0-6.815 0-10.33.013h-.012c-.738 0-1.101-.367-1.126-1.101a61.42 61.42 0 00-.113-2.05c-.025-.292-.037-.583-.062-.874l-.038-.545h19.599zM37.517 2.278c2.527 0 4.79.798 6.73 2.38 1.65 1.342 2.7 3.253 3.301 6 .05.253.1.507.138.76.025.114.037.24.062.367l.113.595H30.226l-.025-.481c-.1-2.24-.038-4.608 1.163-6.76.775-1.392 1.926-2.278 3.34-2.57.962-.19 1.913-.29 2.813-.29zM16.172.481c2.776.494 4.727 2.14 5.778 4.899.675 1.76.95 3.734.875 6.202-.012.342.038.772.526 1.101.25.178.375.456.362.836 0 .177-.025.367-.037.557l-.038.38-.262 3.924c-.175 2.696-.363 5.48-.55 8.228-.038.607-.363.949-.976 1.038-.075.012-.15.025-.213.037-.025 0-.062.013-.087.013l-.388.076-.025.393c-.025.354-.05.696-.063 1.038-.05.734-.1 1.493-.125 2.24-.037 1.532-.062 3.089-.087 4.595-.038 2.152-.075 4.38-.138 6.557-.1 3.456-1.726 5.987-4.828 7.544-.562.279-1.188.443-1.863.62a21.87 21.87 0 00-.863.241h-1.764a6.36 6.36 0 00-.425-.089c-.338-.076-.663-.139-.963-.24-1.776-.57-3.19-1.468-4.215-2.684-1.013-1.215-1.663-2.76-1.913-4.62-.225-1.62-.35-3.291-.476-4.899-.05-.57-.087-1.164-.137-1.76-.163-1.986-.338-4.012-.488-5.974-.062-.848-.138-1.709-.2-2.557l-.025-.354-.338-.089c-.663-.177-.95-.304-1.1-.48-.138-.165-.213-.47-.25-1.115l-.3-4.367C.412 19.354.25 16.924.074 14.506a2.997 2.997 0 00-.062-.38c0-.025-.013-.05-.013-.075v-.836c.175-.342.338-.582.638-.709.338-.152.563-.519.65-.835.113-.43.2-.86.3-1.279.15-.696.3-1.367.513-2.012.9-2.76 2.477-4.836 4.69-6.203C8.817.9 11.12.253 13.571.253c.85 0 1.725.076 2.6.228zM4.54 28.215l.075.836c.05.607.113 1.19.15 1.772.075.911.138 1.848.213 2.747.137 1.911.287 3.873.475 5.81.025.24.05.48.063.734.137 1.468.275 3 .675 4.43.738 2.595 3.252 4.405 6.103 4.405 1.389 0 2.677-.43 3.74-1.24 1.789-1.33 2.664-3.101 2.701-5.393.063-3.24.15-6.544.25-9.734l.113-4.038v-.227-.634H4.478l.062.532zM2.514 21.62l.225 3.494.038.468h18.097l.038-.468.187-2.696.05-.785.038-.544H2.489l.025.531zm-.488-7.152l.038.545L2.2 17.1l.1 1.43.025.444.45.025c.063 0 .126.013.188.013.138.012.263.012.4.012h6.58c3.288 0 6.815 0 10.33.013h.012c.738 0 1.101-.367 1.126-1.101.025-.671.063-1.342.113-2.05.025-.292.037-.583.062-.874l.038-.545H2.026zm11.457-12.19c-2.527 0-4.79.798-6.73 2.38-1.65 1.342-2.7 3.253-3.301 6-.05.253-.1.507-.138.76-.025.114-.037.24-.062.367l-.113.595h17.635l.025-.481c.1-2.24.038-4.608-1.163-6.76-.775-1.392-1.926-2.278-3.34-2.57a14.653 14.653 0 00-2.813-.29z"/></svg><svg viewBox="0 0 50 45" id="room__tele" xmlns="http://www.w3.org/2000/svg"><path d="M49.841 32.523c.093-.316.146-.659.146-1.002.013-8.863.013-18.134 0-28.33 0-1.872-1.312-3.178-3.194-3.178C39.623 0 32.441 0 25.258 0H3.194C1.617 0 .504.857.08 2.4c-.014.066-.053.12-.08.172v29.543c.013.052.04.105.053.158.053.158.106.303.159.448.477 1.227 1.59 1.939 3.022 1.939H23.866l.026.356c0 .053.014.119.014.172.013.118.026.237.026.369v1.015c0 .633 0 1.293.014 1.94.013.342-.067.817-.756.962-3.896.818-7.845 1.649-11.675 2.466-1.405.303-2.81.594-4.214.897-.424.092-.755.29-.928.567a.897.897 0 00-.119.739c.12.554.517.844 1.113.844.133 0 .265-.013.411-.04l5.023-1.068c3.83-.805 7.792-1.649 11.688-2.466.159-.04.344-.053.517-.053.185 0 .384.013.57.053 4.346.897 8.76 1.82 13.04 2.717l3.975.83c.106.027.212.04.318.04.57 0 .994-.33 1.1-.857a.988.988 0 00-.146-.765c-.172-.264-.463-.449-.821-.528a3453.924 3453.924 0 00-16.088-3.35c-.411-.079-.862-.277-.848-1.028.026-.792.013-1.57.013-2.388V34.686h20.527c1.63-.026 2.783-.804 3.194-2.163zM2.187 20.297V3.404c0-.937.291-1.227 1.219-1.227h43.188c.769 0 1.22.185 1.22 1.134v21.867c0 .106-.014.198-.014.29 0 .04-.013.093-.013.146l-.027.369H2.187v-5.685zm45.626 11.264c0 .554-.344.897-.9.923H3.073c-.556-.026-.9-.383-.9-.923v-2.097V28.21H47.8v1.24c.013.738.013 1.424.013 2.11z"/></svg><svg viewBox="0 0 44 49" id="room__tualet" xmlns="http://www.w3.org/2000/svg"><path d="M43.987 39.819v-1.663a.117.117 0 00-.117-.116h-2.508a.39.39 0 01-.39-.39v-.35-.663c0-.377 0-.753.014-1.13.013-.844.027-1.636-.08-2.415-.228-1.559-.965-2.883-2.144-3.845-1.166-.948-2.653-1.454-4.288-1.454H23.757a.39.39 0 01-.39-.39v-.636-2.078c0-2.026 0-4.13.013-6.195 0-.325-.08-.48-.361-.675a160.99 160.99 0 01-2.734-1.974c-.804-.585-1.62-1.182-2.438-1.766-.362-.26-.536-.585-.523-1.04.014-1.545.014-3.116 0-4.623v-.331a.798.798 0 00-.798-.799h-3.717V2.533a.39.39 0 01.39-.39H15.194c.55 0 .991 0 1.393-.012h.094c.536 0 1.045.116 1.541.363 1.206.598 2.385 1.169 3.644 1.78.019.008.038.018.056.027a1.133 1.133 0 001.498-.495 1.02 1.02 0 00-.495-1.403c-1.112-.545-2.17-1.052-3.243-1.571-.388-.195-.777-.39-1.152-.598a1.941 1.941 0 00-.911-.22H7.141a1.084 1.084 0 000 2.169h3.014a.39.39 0 01.39.39v4.766H7.12c-.595 0-1.078.482-1.078 1.077v.546c0 1.35 0 2.74.013 4.117 0 .467-.174.792-.562 1.077-.938.676-1.89 1.364-2.8 2.027A401.47 401.47 0 01.2 17.988c-.147.104-.187.181-.187.376 0 5 0 10.078.013 14.987v10.091c0 .195.027.39.08.546.228.688.483 1.402.71 2.078.322.935.657 1.896.965 2.857.027.065.04.104.054.104.013 0 .053.013.134.013h15.609c6.712 0 13.653 0 20.486-.013a.714.714 0 00.402-.143c1.018-.87 2.05-1.766 3.041-2.637.75-.662 1.528-1.337 2.291-2 .161-.142.215-.26.215-.454-.027-1.35-.027-2.675-.027-3.974zm-15.1-9.87c1.956 0 3.899.013 5.788.026 2.264.013 4.046 1.766 4.073 3.987.014.83.014 1.65 0 2.52v1.168a.39.39 0 01-.39.39H19.322a.4.4 0 01-.293-.128l-.002-.002-.014-.013c-.04-.04-.174-.156-.174-.338 0-.415 0-.844-.013-1.26-.014-.974-.027-2 .067-2.987.174-1.83 1.956-3.337 3.98-3.35 2.05-.013 4.072-.013 6.015-.013zM16.239 15.624c1.367.974 2.907 2.091 4.408 3.22.268.196.456.572.482.923.027.545.027 1.078.014 1.636v.637a.39.39 0 01-.39.39H13.212a.39.39 0 01-.39-.39v-6.312a.39.39 0 01.39-.39h1.245c.429 0 .764 0 1.072.013.295 0 .576.17.71.273zM8.28 12.767V9.494h6.793V13.144H8.28v-.377zm-6.042 6.701c.013-.273.228-.467.429-.623C4.18 17.74 5.68 16.65 7.115 15.61c.174-.13.402-.273.67-.273.321-.013.67-.013 1.125-.013h1.245a.39.39 0 01.39.39v6.299a.39.39 0 01-.39.39H2.614a.39.39 0 01-.39-.39v-.598c0-.623 0-1.285.014-1.948zm13.546 27.338c-.08 0-.148.013-.202.013-.12.013-.227.026-.335.026h-4.301c-2.036 0-4.42 0-6.779.013h-.013c-.93 0-1.236-1.176-1.492-2.07-.358-1.245-.51-2.622-.491-4.307.053-3.532.04-7.143.027-10.623 0-1.39-.014-2.831-.014-4.247v-.623a.39.39 0 01.39-.39H20.7a.39.39 0 01.39.39v.597c0 .662 0 1.35-.014 2.026-.014.312-.335.532-.523.623-2.68 1.182-3.979 3.156-3.992 6.052v3.364a.39.39 0 01-.39.39h-2.43a.195.195 0 00-.195.194v1.39c0 1.325 0 2.701-.013 4.052 0 .234.053.35.214.493a47.17 47.17 0 011.568 1.364c.214.195.442.39.67.585l.018.016a.384.384 0 01-.22.672zm25.979-4.091c-.014.312-.268.571-.375.662a355.385 355.385 0 01-3.618 3.156c-.214.182-.55.299-.844.299-2.693 0-5.453.013-8.227.013-2.639 0-5.346 0-8.065-.013a1.3 1.3 0 01-.79-.286 334.501 334.501 0 01-3.659-3.182c-.174-.155-.361-.35-.375-.623-.013-.52-.013-1.039-.013-1.572v-.545a.39.39 0 01.39-.39h25.186a.39.39 0 01.39.39v.558c.013.533.013 1.026 0 1.533z"/></svg><svg viewBox="0 0 53 50" id="room__utug" xmlns="http://www.w3.org/2000/svg"><g clip-path="url(#bqclip0_527_1459)"><path d="M1.686 43.855c8.613-.013 17.325-.013 24.716-.013h15.666c1.026 0 1.434-.37 1.476-1.355.112-2.367 1.925-4.379 4.243-4.68.759-.096 1.504-.11 2.206-.11h1.672c.478-.013.843-.15 1.068-.41.225-.26.31-.643.239-1.094-.113-.753-.225-1.52-.337-2.258-.056-.342-.099-.698-.155-1.04-.182-1.246-.365-2.477-.548-3.722a1227.73 1227.73 0 01-1.293-8.84 63.665 63.665 0 00-.238-1.614c-.281-1.834-.563-3.736-.59-5.652-.029-1.519-.619-3.024-1.687-4.242a7.021 7.021 0 00-4.018-2.34c-1.166-.219-2.431-.219-3.64-.219h-.885c-3.217-.04-5.339-1.997-5.522-5.117-.042-.657-.52-1.136-1.152-1.136h-.042c-.632.027-1.096.52-1.11 1.19-.028 1.697.618 3.394 1.827 4.762 1.208 1.382 2.824 2.244 4.524 2.45.829.095 1.7.095 2.53.095.505 0 1.01 0 1.53.028.52.014 1.125.068 1.7.219 2.165.602 3.809 2.805 3.598 4.83l-.042.37H34.369c-3.4 0-6.169 0-8.74-.014h-.042c-3.035 0-6 .725-8.782 2.162-4.314 2.217-7.84 5.583-10.468 9.975-2.037 3.394-3.077 6.733-3.19 10.222-.014.342-.253.657-.45.835C1.462 38.177.66 39.408.254 40.886c-.056.233-.127.465-.183.698-.028.096-.042.191-.07.273v1.191c.31.575.787.807 1.686.807zm3.78-8.908c.098-.383.197-.78.28-1.163.198-.848.394-1.724.717-2.559 2.361-6.28 6.534-10.865 12.407-13.601a15.302 15.302 0 016.478-1.437H47.675l.056.356 2.712 18.459.07.465H5.339l.127-.52zm-2.796 6.09c.477-1.793 2.473-3.27 4.552-3.353H42.897l-.267.575-.098.232-1.293 2.82-.112.245H2.529l.14-.52zM51.145 47.728H33.58c-10.089 0-20.936 0-31.952-.013-.843 0-1.335.246-1.644.82v.63c.31.589.787.821 1.686.821 10.988-.013 21.78-.013 31.812-.013H51.412c.716 0 1.573-.192 1.573-1.122 0-.356-.126-.63-.365-.808-.267-.205-.688-.315-1.208-.315h-.267z"/><path d="M39.329 20.087c-2.319-.013-4.258-.027-6.084-.027-2.515 0-4.777.014-6.941.041-.647.014-1.405.22-2.094.589a4.017 4.017 0 00-1.995 4.611 4.29 4.29 0 004.075 3.16c.744.015 1.545.015 2.529.015H36.786c.97 0 1.784 0 2.529-.014 2.318-.027 4.201-1.902 4.215-4.16.014-2.312-1.869-4.2-4.201-4.215zm-.267 6.13H26.613c-1.293 0-2.206-.793-2.22-1.929 0-.533.183-.998.548-1.354.393-.397.983-.616 1.644-.616h12.448c.661 0 1.237.219 1.645.616.351.355.548.834.548 1.354-.014 1.122-.928 1.93-2.164 1.93zM15.386 29.297h-.998c-.239 0-.421 0-.604.013-.646.014-1.152.52-1.152 1.122 0 .616.506 1.109 1.152 1.122.506.014 1.026.014 1.546.014s1.04 0 1.587-.014c.66-.013 1.167-.492 1.167-1.108.014-.63-.506-1.122-1.195-1.136h-1.04c-.154-.013-.309-.013-.463-.013z"/></g><defs><clipPath id="bqclip0_527_1459"><path d="M0 0h53v50H0z"/></clipPath></defs></svg><svg viewBox="0 0 57 41" id="room__wi-fi" xmlns="http://www.w3.org/2000/svg"><g clip-path="url(#brclip0_527_1484)"><path d="M43.519 2.925C38.949.985 34.026 0 28.89 0c-2.617 0-5.347.26-8.12.753C14.488 1.897 8.645 4.721 3.397 9.138c-1.033.87-2.01 1.81-2.943 2.738-.438.434-.552.956-.34 1.55.213.564.609.868 1.231.94h.128c.396 0 .75-.188 1.174-.608 2.221-2.23 4.64-4.142 7.173-5.662C15.592 4.649 21.83 2.91 28.38 2.91c1.486 0 3.014.087 4.541.26 4.683.551 9.21 2.028 13.426 4.418 2.816 1.593 5.461 3.62 7.895 6.025.226.217.551.52.905.666.17.072.325.101.481.101.65 0 1.09-.608 1.372-1.144v-.68c-.042-.073-.099-.146-.141-.218-.127-.217-.255-.42-.41-.565-3.99-3.924-8.347-6.893-12.931-8.849z"/><path d="M47.748 20.435c-4.994-4.953-10.979-7.661-17.798-8.038a29.936 29.936 0 00-1.613-.043c-5.404 0-10.398 1.55-14.883 4.62-1.202.825-2.32 1.824-3.41 2.78-.282.26-.593.521-.876.782-.453.391-.58.927-.382 1.52.198.58.594.899 1.188.986.057.014.113.014.17.014.51 0 .877-.319 1.386-.81 4.556-4.418 10.102-6.88 15.605-6.952h.085c4.555 0 7.922.637 11.233 2.143 2.645 1.202 5.107 2.925 7.314 5.112.34.348.736.522 1.132.522.368 0 .707-.16.976-.45.608-.637.552-1.52-.127-2.186zM39.103 29.182c-2.9-2.838-6.423-4.388-10.186-4.446-2.306 0-4.386.391-6.183 1.159-1.782.767-3.395 1.868-4.824 3.273-.622.623-.665 1.477-.127 2.085.269.304.636.478 1.018.478.354 0 .694-.13.99-.376.1-.087.213-.189.312-.29.1-.101.198-.188.311-.29 2.405-2.07 5.08-3.128 7.923-3.128 1.316 0 2.688.217 4.074.666 1.641.522 3.155 1.478 4.782 3.013.283.275.637.42.99.42.397 0 .764-.174 1.033-.493.552-.608.51-1.462-.113-2.07zM26.441 38.857c-.014.579.198 1.115.58 1.52.382.406.906.623 1.457.623h.014c1.16 0 2.066-.927 2.08-2.114 0-1.159-.891-2.086-2.051-2.1h-.029v-.218.218a2.07 2.07 0 00-2.05 2.07z"/></g><defs><clipPath id="brclip0_527_1484"><path d="M0 0h57v41H0z"/></clipPath></defs></svg><svg viewBox="0 0 25 24" id="search" xmlns="http://www.w3.org/2000/svg"><path d="M18.531 16.617l4.283 4.282-1.415 1.415-4.282-4.283A8.96 8.96 0 0111.5 20c-4.968 0-9-4.032-9-9s4.032-9 9-9 9 4.032 9 9a8.96 8.96 0 01-1.969 5.617zm-2.006-.742A6.977 6.977 0 0018.5 11c0-3.868-3.133-7-7-7-3.868 0-7 3.132-7 7 0 3.867 3.132 7 7 7a6.977 6.977 0 004.875-1.975l.15-.15z"/></svg><svg viewBox="0 0 49 16" id="slider-next" xmlns="http://www.w3.org/2000/svg"><path d="M47 8l-7.048 7M47 8l-7.048-7M47 8H0" stroke="#2E2E2E" stroke-width="2"/></svg><svg viewBox="0 0 49 16" id="slider-prev" xmlns="http://www.w3.org/2000/svg"><path d="M2 8l7.048 7M2 8l7.048-7M2 8h47" stroke="#2E2E2E" stroke-width="2"/></svg><svg viewBox="0 0 27 15" id="vk" xmlns="http://www.w3.org/2000/svg"><path fill-rule="evenodd" clip-rule="evenodd" d="M26.38 1.016C26.569.43 26.38 0 25.488 0h-2.954c-.75 0-1.097.372-1.285.782 0 0-1.502 3.425-3.63 5.65-.688.643-1.001.848-1.377.848-.187 0-.46-.205-.46-.79V1.016c0-.703-.217-1.016-.843-1.016h-4.642c-.47 0-.751.326-.751.635 0 .666 1.063.82 1.173 2.693v4.07c0 .891-.172 1.053-.548 1.053-1 0-3.437-3.44-4.881-7.377C5.005.31 4.72 0 3.967 0H1.013C.169 0 0 .372 0 .782c0 .731 1.002 4.361 4.663 9.162C7.103 13.222 10.543 15 13.672 15c1.878 0 2.11-.395 2.11-1.075v-2.478c0-.79.178-.947.772-.947.439 0 1.19.205 2.942 1.786C21.499 14.159 21.829 15 22.956 15h2.953c.844 0 1.266-.395 1.023-1.174-.267-.776-1.223-1.902-2.492-3.238-.688-.761-1.72-1.58-2.034-1.99-.438-.527-.313-.761 0-1.23 0 0 3.599-4.742 3.975-6.352z"/></svg><svg viewBox="0 0 17 10" id="vk__footer" xmlns="http://www.w3.org/2000/svg"><path fill-rule="evenodd" clip-rule="evenodd" d="M16.031 1.41c.113-.352 0-.61-.536-.61h-1.772c-.45 0-.658.223-.77.47 0 0-.902 2.054-2.179 3.389-.413.386-.6.51-.826.51-.113 0-.276-.124-.276-.475V1.41c0-.422-.13-.61-.506-.61H6.38c-.282 0-.451.196-.451.381 0 .4.638.492.704 1.616V5.24c0 .535-.103.632-.329.632-.6 0-2.062-2.064-2.929-4.426C3.206.985 3.036.8 2.583.8H.811c-.507 0-.608.223-.608.47 0 .438.601 2.616 2.798 5.497C4.465 8.734 6.529 9.8 8.406 9.8c1.127 0 1.266-.237 1.266-.645V7.67c0-.474.107-.568.463-.568.264 0 .714.122 1.766 1.07 1.201 1.125 1.4 1.63 2.075 1.63h1.773c.506 0 .76-.238.613-.705-.16-.466-.733-1.142-1.495-1.943-.413-.457-1.032-.948-1.22-1.194-.263-.316-.188-.457 0-.738 0 0 2.16-2.845 2.384-3.811z"/></svg><svg viewBox="0 0 27 15" id="vk__footer-middle" xmlns="http://www.w3.org/2000/svg"><path fill-rule="evenodd" clip-rule="evenodd" d="M26.38 1.016C26.569.43 26.38 0 25.488 0h-2.954c-.75 0-1.097.372-1.285.782 0 0-1.502 3.425-3.63 5.65-.688.643-1.001.848-1.377.848-.187 0-.46-.205-.46-.79V1.016c0-.703-.217-1.016-.843-1.016h-4.642c-.47 0-.751.326-.751.635 0 .666 1.063.82 1.173 2.693v4.07c0 .891-.172 1.053-.548 1.053-1 0-3.437-3.44-4.881-7.377C5.005.31 4.72 0 3.967 0H1.013C.169 0 0 .372 0 .782c0 .731 1.002 4.361 4.663 9.162C7.103 13.222 10.543 15 13.672 15c1.878 0 2.11-.395 2.11-1.075v-2.478c0-.79.178-.947.772-.947.439 0 1.19.205 2.942 1.786C21.499 14.159 21.829 15 22.956 15h2.953c.844 0 1.266-.395 1.023-1.174-.267-.776-1.223-1.902-2.492-3.238-.688-.761-1.72-1.58-2.034-1.99-.438-.527-.313-.761 0-1.23 0 0 3.599-4.742 3.975-6.352z"/></svg></svg>