<svg width="199" height="97" viewBox="0 0 199 97" fill="none" xmlns="http://www.w3.org/2000/svg">
<path d="M125.405 74.3943C124.522 73.3333 122.009 70.2046 117.866 65.0081C117.278 64.2936 116.72 63.9796 116.195 64.0663V70.1721C116.195 71.5795 116.352 72.4564 116.668 72.8028C116.962 73.1276 117.761 73.3441 119.065 73.4524V74.3943H110.643V73.4524C111.842 73.3441 112.578 73.1276 112.851 72.8028C113.145 72.4564 113.293 71.5795 113.293 70.1721V57.5057C113.293 56.0766 113.145 55.1889 112.851 54.8425C112.557 54.5394 111.789 54.3337 110.548 54.2254V53.2835H118.876V54.2254C117.656 54.3337 116.91 54.5502 116.636 54.875C116.342 55.2214 116.195 56.0983 116.195 57.5057V63.1569C116.741 63.027 117.488 62.529 118.434 61.6629C120.621 59.4544 122.335 57.5598 123.576 55.9792C124.017 55.3946 124.207 54.994 124.143 54.7775C124.08 54.561 123.702 54.4094 123.008 54.3228L122.314 54.2254V53.2835H129.979V54.2254C128.086 54.4203 126.383 55.2214 124.869 56.6288C124.448 57.0402 122.65 58.8806 119.475 62.15C121.536 64.8566 123.965 67.8445 126.762 71.114C128.023 72.4997 129.274 73.2792 130.515 73.4524V74.3943H125.405Z" fill="black"/>
<path d="M83.6906 13.8398C84.2828 13.2489 84.6808 12.9493 85.0129 12.6997C85.3544 12.4431 85.6239 12.2394 85.9654 11.8262L90.9097 7.44669H80.4822C77.3803 7.44669 74.8674 9.95121 74.8674 13.0407C74.8674 16.1302 77.3803 18.6347 80.4822 18.6347H115.956C115.364 19.2257 114.966 19.5253 114.633 19.7748C114.292 20.0315 114.022 20.2351 113.681 20.6483L108.737 25.0279H119.164C122.266 25.0279 124.779 22.5233 124.779 19.4339C124.779 16.3444 122.266 13.8398 119.164 13.8398H83.6906Z" fill="black"/>
<path fill-rule="evenodd" clip-rule="evenodd" d="M73.6954 25.5148L74.213 25.5636H95.8498L88.0565 32.1607H123.597C129.908 32.1607 135.024 26.8073 135.024 20.2035C135.024 13.7212 130.094 8.44326 123.944 8.25173L123.771 8.24633H100.907L108.7 1.64927H74.213L73.6954 1.69808C67.8729 2.24711 63.3089 7.37 63.3089 13.6064C63.3089 19.8429 67.8729 24.9658 73.6954 25.5148ZM113.746 0L105.953 6.59706H123.991V6.60319C130.99 6.82117 136.6 12.8268 136.6 20.2035C136.6 27.7181 130.778 33.81 123.597 33.81H83.0109L90.8041 27.2129H73.5539V27.1574C66.9264 26.5325 61.7328 20.7041 61.7328 13.6064C61.7328 6.50878 66.9264 0.680411 73.5539 0.0554685V0H113.746Z" fill="black"/>
<path d="M65.6731 96.879H66.4581V92.8117H71.3361V96.879H72.1211V88.0269H71.3361V92.0855H66.4581V88.0269H65.6731V96.879Z" fill="black"/>
<path d="M88.7778 92.4529C88.7778 89.6824 87.233 87.9059 85.0585 87.9059C82.8882 87.9059 81.3434 89.6867 81.3434 92.4529C81.3434 95.2192 82.884 97 85.0585 97C87.233 97 88.7778 95.2235 88.7778 92.4529ZM88.0138 92.4529C88.018 94.8345 86.7545 96.2393 85.0585 96.2393C83.3584 96.2393 82.1032 94.8259 82.1032 92.4529C82.1032 90.067 83.371 88.6666 85.0585 88.6666C86.7545 88.6666 88.0138 90.0714 88.0138 92.4529Z" fill="black"/>
<path d="M97.127 88.7531H99.8514V96.879H100.636V88.7531H103.361V88.0269H97.127V88.7531Z" fill="black"/>
<path d="M112.457 96.879H117.528V96.1528H113.242V92.8117H117.18V92.0855H113.242V88.7531H117.444V88.0269H112.457V96.879Z" fill="black"/>
<path d="M126.805 96.879H131.687V96.1528H127.59V88.0269H126.805V96.879Z" fill="black"/>
<path d="M31.5231 72.6188C30.5866 77.6544 29.9123 80.9469 29.5002 82.4963H0.449527L0 81.6247C11.6877 64.5425 19.5544 52.9412 23.6002 46.821H13.8792C10.9947 46.821 9.02801 46.976 7.97911 47.2859C7.15498 47.5183 6.48069 48.0606 5.95624 48.9127C5.24449 50.0361 4.58893 51.7211 3.98956 53.9677L2.36002 53.9096C2.69716 49.61 2.92193 46.0657 3.03431 43.2767H4.38289C4.86988 44.2451 5.86259 44.7293 7.36101 44.7293H29.7812L30.1745 45.5428C19.723 60.8432 11.9874 72.3476 6.96768 80.056C8.76578 80.2884 11.8188 80.4046 16.1268 80.4046C21.9332 80.4046 25.4919 79.688 26.8031 78.2548C27.852 77.1314 28.8821 75.1366 29.8936 72.2702L31.5231 72.6188Z" fill="black"/>
<path d="M46.1722 74.3819V73.4406C47.1599 73.3108 47.7589 73.1269 47.969 72.8888C48.2002 72.6724 48.2002 72.2397 47.969 71.5905C47.6958 70.7034 47.1494 69.1238 46.3298 66.8517H39.71C39.3947 67.7605 38.9429 69.1021 38.3545 70.8765C38.0392 71.8718 37.9972 72.5102 38.2284 72.7915C38.4595 73.0944 39.1636 73.3108 40.3404 73.4406V74.3819H33.4369V73.4406C34.4876 73.2891 35.1917 73.0511 35.5489 72.7265C35.9692 72.337 36.4421 71.4607 36.9675 70.0975L43.4927 53.1222L44.596 52.7976C47.9375 62.3401 49.9655 68.1068 50.68 70.0975C51.1844 71.4823 51.6362 72.3587 52.0355 72.7265C52.3928 73.0944 53.0968 73.3324 54.1475 73.4406V74.3819H46.1722ZM43.1775 57.3417H43.0829C41.9691 60.4359 41.0129 63.1191 40.2143 65.3911H45.857L43.1775 57.3417Z" fill="black"/>
<path d="M67.5555 62.9893C71.3172 63.5519 73.1981 65.2721 73.1981 68.15C73.1981 70.2922 72.1999 71.9259 70.2034 73.0511C68.7113 73.9383 66.6308 74.3819 63.9618 74.3819H56.8061V73.4406C58.1511 73.3541 58.9602 73.1485 59.2334 72.8239C59.5276 72.4993 59.6747 71.6663 59.6747 70.3247V57.3092C59.6747 55.9676 59.5486 55.1454 59.2964 54.8424C59.0232 54.5179 58.2772 54.3123 57.0583 54.2257V53.2845H65.3488C67.4924 53.2845 69.1001 53.6523 70.1719 54.388C71.3487 55.2103 71.9372 56.4437 71.9372 58.0882C71.9372 60.555 70.4766 62.167 67.5555 62.9244V62.9893ZM63.9303 62.5998C67.1457 62.5998 68.7533 61.2366 68.7533 58.5101C68.7533 57.2767 68.4276 56.2922 67.7761 55.5565C67.0616 54.7559 66.0423 54.3556 64.7184 54.3556C63.9198 54.3556 63.3419 54.4746 62.9846 54.7126C62.7324 54.8857 62.6063 55.405 62.6063 56.2706V62.5998H63.9303ZM62.6063 70.2598C62.6063 71.4282 62.785 72.218 63.1422 72.6292C63.4995 73.0403 64.172 73.235 65.1597 73.2134C66.4837 73.2134 67.566 72.8456 68.4066 72.1098C69.3523 71.266 69.8251 70.0542 69.8251 68.4746C69.8251 65.3154 67.8497 63.7358 63.8988 63.7358H62.6063V70.2598Z" fill="black"/>
<path d="M87.9292 74.3819V73.4406C88.917 73.3108 89.5159 73.1269 89.7261 72.8888C89.9572 72.6724 89.9572 72.2397 89.7261 71.5905C89.4529 70.7034 88.9064 69.1238 88.0868 66.8517H81.467C81.1518 67.7605 80.6999 69.1021 80.1115 70.8765C79.7963 71.8718 79.7542 72.5102 79.9854 72.7915C80.2166 73.0944 80.9206 73.3108 82.0975 73.4406V74.3819H75.1939V73.4406C76.2447 73.2891 76.9487 73.0511 77.3059 72.7265C77.7263 72.337 78.1991 71.4607 78.7245 70.0975L85.2498 53.1222L86.3531 52.7976C89.6945 62.3401 91.7225 68.1068 92.437 70.0975C92.9414 71.4823 93.3932 72.3587 93.7925 72.7265C94.1498 73.0944 94.8538 73.3324 95.9046 73.4406V74.3819H87.9292ZM84.9345 57.3417H84.84C83.7261 60.4359 82.77 63.1191 81.9714 65.3911H87.614L84.9345 57.3417Z" fill="black"/>
<path d="M98.5946 74.3819V73.4406C99.8766 73.3324 100.665 73.1269 100.959 72.8239C101.253 72.4993 101.4 71.6554 101.4 70.2922V57.3741C101.4 56.0109 101.253 55.167 100.959 54.8424C100.665 54.5395 99.8766 54.3339 98.5946 54.2257V53.2845H107.169V54.2257C105.887 54.3339 105.099 54.5395 104.805 54.8424C104.51 55.167 104.363 56.0109 104.363 57.3741V70.2922C104.363 71.6554 104.51 72.4993 104.805 72.8239C105.099 73.1269 105.887 73.3324 107.169 73.4406V74.3819H98.5946Z" fill="black"/>
<path d="M142.289 74.3819V73.4406C143.277 73.3108 143.876 73.1269 144.086 72.8888C144.317 72.6724 144.317 72.2397 144.086 71.5905C143.813 70.7034 143.266 69.1238 142.447 66.8517H135.827C135.511 67.7605 135.06 69.1021 134.471 70.8765C134.156 71.8718 134.114 72.5102 134.345 72.7915C134.576 73.0944 135.28 73.3108 136.457 73.4406V74.3819H129.554V73.4406C130.604 73.2891 131.308 73.0511 131.666 72.7265C132.086 72.337 132.559 71.4607 133.084 70.0975L139.609 53.1222L140.713 52.7976C144.054 62.3401 146.082 68.1068 146.797 70.0975C147.301 71.4823 147.753 72.3587 148.152 72.7265C148.509 73.0944 149.214 73.3324 150.264 73.4406V74.3819H142.289ZM139.294 57.3417H139.2C138.086 60.4359 137.13 63.1191 136.331 65.3911H141.974L139.294 57.3417Z" fill="black"/>
<path d="M168.464 69.1887C168.106 71.2876 167.728 73.0187 167.329 74.3819H152.86V73.4406C154.205 73.3324 155.024 73.1269 155.319 72.8239C155.634 72.4777 155.791 71.623 155.791 70.2598V57.3741C155.791 56.0109 155.655 55.167 155.382 54.8424C155.087 54.5395 154.31 54.3339 153.049 54.2257V53.2845H161.529V54.2257C160.268 54.3339 159.49 54.5287 159.196 54.81C158.902 55.1562 158.755 56.0109 158.755 57.3741V70.1624C158.755 71.6554 158.996 72.5426 159.48 72.8239C159.942 73.0836 160.909 73.2134 162.38 73.2134C164.124 73.2134 165.28 72.878 165.847 72.2072C166.499 71.4715 167.056 70.4004 167.518 68.9939L168.464 69.1887Z" fill="black"/>
<path d="M170.955 74.3819V73.4406C172.236 73.3324 173.025 73.1269 173.319 72.8239C173.613 72.4993 173.76 71.6554 173.76 70.2922V57.3741C173.76 56.0109 173.613 55.167 173.319 54.8424C173.025 54.5395 172.236 54.3339 170.955 54.2257V53.2845H179.529V54.2257C178.247 54.3339 177.459 54.5395 177.165 54.8424C176.87 55.167 176.723 56.0109 176.723 57.3741V70.2922C176.723 71.6554 176.87 72.4993 177.165 72.8239C177.459 73.1269 178.247 73.3324 179.529 73.4406V74.3819H170.955Z" fill="black"/>
<path d="M199 69.2211C198.664 71.2551 198.296 72.9754 197.897 74.3819H182.545V73.4406C183.974 73.3324 184.846 73.116 185.161 72.7915C185.477 72.4669 185.634 71.6338 185.634 70.2922V57.4715C185.634 56.0434 185.487 55.167 185.193 54.8424C184.941 54.5395 184.195 54.3339 182.955 54.2257V53.2845H197.14L197.266 55.2644C197.35 56.5194 197.403 57.4282 197.424 57.9908L196.478 58.1531C196.247 57.0279 195.89 56.0975 195.406 55.3617C195.007 54.7559 193.851 54.4529 191.939 54.4529H189.669C189.165 54.4529 188.86 54.507 188.755 54.6152C188.65 54.7234 188.597 55.0263 188.597 55.524V62.827H191.434C192.821 62.827 193.694 62.6972 194.051 62.4375C194.366 62.1778 194.629 61.4962 194.839 60.3927H195.785V66.657H194.839C194.629 65.5101 194.356 64.8069 194.019 64.5472C193.662 64.2876 192.8 64.1577 191.434 64.1577H188.597V70.1624C188.597 71.5905 188.85 72.4777 189.354 72.8239C189.753 73.0836 190.815 73.2134 192.538 73.2134C194.534 73.2134 195.837 72.8564 196.447 72.1423C197.056 71.385 197.592 70.3571 198.054 69.0588L199 69.2211Z" fill="black"/>
</svg>
