<svg width="210" height="100" viewBox="0 0 210 100" fill="none" xmlns="http://www.w3.org/2000/svg">
<path d="M132.18 76.1555C131.249 75.0694 128.6 71.8666 124.233 66.5471C123.613 65.8157 123.025 65.4943 122.471 65.583V71.8334C122.471 73.2741 122.638 74.1718 122.97 74.5264C123.28 74.8589 124.123 75.0805 125.497 75.1913V76.1555H116.62V75.1913C117.883 75.0805 118.659 74.8589 118.947 74.5264C119.258 74.1718 119.413 73.2741 119.413 71.8334V58.8671C119.413 57.4042 119.258 56.4955 118.947 56.1408C118.637 55.8305 117.828 55.62 116.52 55.5091V54.545H125.297V55.5091C124.012 55.62 123.225 55.8416 122.937 56.1741C122.627 56.5287 122.471 57.4264 122.471 58.8671V64.6521C123.048 64.5191 123.835 64.0093 124.832 63.1227C127.137 60.8619 128.943 58.9225 130.251 57.3045C130.717 56.706 130.916 56.296 130.85 56.0743C130.783 55.8527 130.384 55.6975 129.653 55.6089L128.921 55.5091V54.545H137V55.5091C135.005 55.7086 133.21 56.5287 131.614 57.9694C131.171 58.3905 129.276 60.2745 125.929 63.6214C128.101 66.392 130.661 69.4507 133.609 72.7976C134.939 74.2161 136.258 75.014 137.566 75.1913V76.1555H132.18Z" fill="white"/>
<path d="M88.2116 14.1675C88.8357 13.5626 89.2552 13.2558 89.6052 13.0004C89.9652 12.7377 90.2492 12.5292 90.6092 12.1062L95.8206 7.62298H84.8298C81.5603 7.62298 78.9117 10.1868 78.9117 13.3494C78.9117 16.5121 81.5603 19.0759 84.8298 19.0759H122.22C121.595 19.6808 121.176 19.9875 120.826 20.243C120.466 20.5057 120.182 20.7142 119.822 21.1371L114.611 25.6204H125.601C128.871 25.6204 131.519 23.0566 131.519 19.8939C131.519 16.7313 128.871 14.1675 125.601 14.1675H88.2116Z" fill="white"/>
<path fill-rule="evenodd" clip-rule="evenodd" d="M77.6764 26.1189L78.222 26.1688H101.028L92.8133 32.9221H130.273C136.925 32.9221 142.318 27.4419 142.318 20.6818C142.318 14.0461 137.122 8.64314 130.639 8.44708L130.457 8.44156H106.358L114.572 1.68831H78.222L77.6764 1.73828C71.5393 2.30031 66.7288 7.54448 66.7288 13.9286C66.7288 20.3127 71.5393 25.5568 77.6764 26.1189ZM119.89 0L111.676 6.75325H130.689V6.75952C138.066 6.98266 143.979 13.1305 143.979 20.6818C143.979 28.3744 137.843 34.6104 130.273 34.6104H87.4951L95.7093 27.8571H77.5273V27.8004C70.5417 27.1606 65.0675 21.1943 65.0675 13.9286C65.0675 6.66287 70.5417 0.696519 77.5273 0.0567817V0H119.89Z" fill="white"/>
<path d="M69.2208 99.1725H70.0482V95.0089H75.1896V99.1725H76.017V90.1109H75.1896V94.2656H70.0482V90.1109H69.2208V99.1725Z" fill="white"/>
<path d="M93.5735 94.6417C93.5735 91.8055 91.9453 89.987 89.6533 89.987C87.3658 89.987 85.7375 91.8099 85.7375 94.6417C85.7375 97.4735 87.3614 99.2964 89.6533 99.2964C91.9453 99.2964 93.5735 97.4779 93.5735 94.6417ZM92.7683 94.6417C92.7727 97.0797 91.4409 98.5177 89.6533 98.5177C87.8614 98.5177 86.5384 97.0708 86.5384 94.6417C86.5384 92.1993 87.8746 90.7657 89.6533 90.7657C91.4409 90.7657 92.7683 92.2037 92.7683 94.6417Z" fill="white"/>
<path d="M102.374 90.8542H105.245V99.1725H106.073V90.8542H108.944V90.1109H102.374V90.8542Z" fill="white"/>
<path d="M118.532 99.1725H123.877V98.4292H119.36V95.0089H123.51V94.2656H119.36V90.8542H123.789V90.1109H118.532V99.1725Z" fill="white"/>
<path d="M133.655 99.1725H138.801V98.4292H134.483V90.1109H133.655V99.1725Z" fill="white"/>
<path d="M33.226 74.338C32.2389 79.4928 31.5281 82.8632 31.0938 84.4493H0.473811L0 83.5572C12.3191 66.0704 20.6108 54.1946 24.8751 47.9295H14.6289C11.5886 47.9295 9.5157 48.0881 8.41014 48.4053C7.54149 48.6432 6.83077 49.1984 6.27799 50.0707C5.52779 51.2206 4.83682 52.9455 4.20507 55.2453L2.48751 55.1859C2.84286 50.7845 3.07977 47.1563 3.19822 44.3013H4.61965C5.13295 45.2926 6.17928 45.7883 7.75865 45.7883H31.39L31.8045 46.621C20.7884 62.2837 12.6349 74.0604 7.34407 81.9512C9.23931 82.1892 12.4573 82.3081 16.998 82.3081C23.118 82.3081 26.869 81.5745 28.251 80.1074C29.3565 78.9575 30.4423 76.9154 31.5084 73.9811L33.226 74.338Z" fill="white"/>
<path d="M48.6664 76.1428V75.1793C49.7075 75.0464 50.3388 74.8581 50.5603 74.6144C50.8039 74.3929 50.8039 73.9499 50.5603 73.2854C50.2723 72.3772 49.6964 70.7602 48.8325 68.4344H41.8551C41.5228 69.3647 41.0466 70.7381 40.4264 72.5544C40.0941 73.5733 40.0498 74.2268 40.2935 74.5147C40.5371 74.8249 41.2792 75.0464 42.5196 75.1793V76.1428H35.2431V75.1793C36.3506 75.0242 37.0927 74.7805 37.4692 74.4483C37.9123 74.0496 38.4106 73.1525 38.9644 71.757L45.8422 54.3798L47.0051 54.0475C50.5271 63.816 52.6646 69.7191 53.4177 71.757C53.9493 73.1746 54.4256 74.0717 54.8464 74.4483C55.223 74.8249 55.965 75.0685 57.0726 75.1793V76.1428H48.6664ZM45.5099 58.6992H45.4103C44.2363 61.8667 43.2284 64.6134 42.3867 66.9392H48.3341L45.5099 58.6992Z" fill="white"/>
<path d="M71.2048 64.4805C75.1697 65.0564 77.1522 66.8174 77.1522 69.7634C77.1522 71.9563 76.1001 73.6287 73.9958 74.7806C72.4231 75.6887 70.2301 76.1428 67.417 76.1428H59.8747V75.1793C61.2924 75.0907 62.1451 74.8802 62.4331 74.548C62.7432 74.2157 62.8983 73.3629 62.8983 71.9896V58.666C62.8983 57.2926 62.7654 56.4509 62.4996 56.1408C62.2116 55.8085 61.4253 55.5981 60.1405 55.5095V54.5459H68.879C71.1383 54.5459 72.8328 54.9225 73.9625 55.6756C75.203 56.5173 75.8232 57.7799 75.8232 59.4634C75.8232 61.9886 74.2837 63.6388 71.2048 64.414V64.4805ZM67.3838 64.0818C70.7728 64.0818 72.4674 62.6863 72.4674 59.8953C72.4674 58.6327 72.124 57.6249 71.4373 56.8718C70.6842 56.0522 69.6099 55.6424 68.2144 55.6424C67.3727 55.6424 66.7636 55.7642 66.387 56.0079C66.1212 56.1851 65.9883 56.7167 65.9883 57.6027V64.0818H67.3838ZM65.9883 71.9231C65.9883 73.1193 66.1766 73.9277 66.5531 74.3486C66.9297 74.7695 67.6385 74.9688 68.6796 74.9467C70.0751 74.9467 71.2158 74.5701 72.1019 73.817C73.0986 72.9531 73.597 71.7127 73.597 70.0957C73.597 66.8617 71.5149 65.2447 67.3506 65.2447H65.9883V71.9231Z" fill="white"/>
<path d="M92.6791 76.1428V75.1793C93.7202 75.0464 94.3515 74.8581 94.573 74.6144C94.8167 74.3929 94.8167 73.9499 94.573 73.2854C94.285 72.3772 93.7091 70.7602 92.8453 68.4344H85.8678C85.5355 69.3647 85.0593 70.7381 84.4391 72.5544C84.1068 73.5733 84.0625 74.2268 84.3062 74.5147C84.5498 74.8249 85.2919 75.0464 86.5323 75.1793V76.1428H79.2558V75.1793C80.3634 75.0242 81.1054 74.7805 81.482 74.4483C81.925 74.0496 82.4234 73.1525 82.9771 71.757L89.8549 54.3798L91.0178 54.0475C94.5398 63.816 96.6773 69.7191 97.4304 71.757C97.9621 73.1746 98.4383 74.0717 98.8592 74.4483C99.2357 74.8249 99.9778 75.0685 101.085 75.1793V76.1428H92.6791ZM89.5227 58.6992H89.423C88.249 61.8667 87.2411 64.6134 86.3994 66.9392H92.3469L89.5227 58.6992Z" fill="white"/>
<path d="M103.921 76.1428V75.1793C105.272 75.0685 106.103 74.8581 106.413 74.548C106.723 74.2157 106.878 73.3518 106.878 71.9563V58.7324C106.878 57.3369 106.723 56.473 106.413 56.1408C106.103 55.8307 105.272 55.6202 103.921 55.5095V54.5459H112.958V55.5095C111.607 55.6202 110.776 55.8307 110.466 56.1408C110.156 56.473 110.001 57.3369 110.001 58.7324V71.9563C110.001 73.3518 110.156 74.2157 110.466 74.548C110.776 74.8581 111.607 75.0685 112.958 75.1793V76.1428H103.921Z" fill="white"/>
<path d="M149.975 76.1428V75.1793C151.016 75.0464 151.648 74.8581 151.869 74.6144C152.113 74.3929 152.113 73.9499 151.869 73.2854C151.581 72.3772 151.005 70.7602 150.141 68.4344H143.164C142.832 69.3647 142.355 70.7381 141.735 72.5544C141.403 73.5733 141.359 74.2268 141.602 74.5147C141.846 74.8249 142.588 75.0464 143.829 75.1793V76.1428H136.552V75.1793C137.66 75.0242 138.402 74.7805 138.778 74.4483C139.221 74.0496 139.72 73.1525 140.273 71.757L147.151 54.3798L148.314 54.0475C151.836 63.816 153.974 69.7191 154.727 71.757C155.258 73.1746 155.734 74.0717 156.155 74.4483C156.532 74.8249 157.274 75.0685 158.381 75.1793V76.1428H149.975ZM146.819 58.6992H146.719C145.545 61.8667 144.537 64.6134 143.696 66.9392H149.643L146.819 58.6992Z" fill="white"/>
<path d="M177.564 70.8267C177.187 72.9753 176.789 74.7473 176.368 76.1428H161.117V75.1793C162.535 75.0685 163.399 74.8581 163.709 74.548C164.041 74.1936 164.207 73.3186 164.207 71.9231V58.7324C164.207 57.3369 164.063 56.473 163.775 56.1408C163.465 55.8307 162.646 55.6202 161.317 55.5095V54.5459H170.254V55.5095C168.925 55.6202 168.106 55.8196 167.796 56.1076C167.485 56.462 167.33 57.3369 167.33 58.7324V71.8234C167.33 73.3518 167.585 74.26 168.095 74.548C168.582 74.8138 169.601 74.9467 171.151 74.9467C172.99 74.9467 174.208 74.6033 174.806 73.9167C175.493 73.1636 176.08 72.0671 176.567 70.6273L177.564 70.8267Z" fill="white"/>
<path d="M180.189 76.1428V75.1793C181.541 75.0685 182.371 74.8581 182.681 74.548C182.991 74.2157 183.147 73.3518 183.147 71.9563V58.7324C183.147 57.3369 182.991 56.473 182.681 56.1408C182.371 55.8307 181.541 55.6202 180.189 55.5095V54.5459H189.227V55.5095C187.876 55.6202 187.045 55.8307 186.735 56.1408C186.425 56.473 186.27 57.3369 186.27 58.7324V71.9563C186.27 73.3518 186.425 74.2157 186.735 74.548C187.045 74.8581 187.876 75.0685 189.227 75.1793V76.1428H180.189Z" fill="white"/>
<path d="M209.75 70.8599C209.395 72.942 209.008 74.703 208.587 76.1428H192.406V75.1793C193.912 75.0685 194.831 74.847 195.164 74.5147C195.496 74.1825 195.662 73.3297 195.662 71.9563V58.8321C195.662 57.3701 195.507 56.473 195.197 56.1408C194.931 55.8307 194.145 55.6202 192.838 55.5095V54.5459H207.79L207.922 56.5727C208.011 57.8575 208.066 58.7878 208.089 59.3637L207.092 59.5298C206.848 58.378 206.472 57.4255 205.962 56.6724C205.541 56.0522 204.323 55.7421 202.307 55.7421H199.915C199.383 55.7421 199.062 55.7975 198.951 55.9082C198.841 56.019 198.785 56.3291 198.785 56.8385V64.3144H201.776C203.238 64.3144 204.157 64.1815 204.533 63.9157C204.866 63.6498 205.143 62.9521 205.364 61.8224H206.361V68.235H205.364C205.143 67.0611 204.855 66.3412 204.5 66.0753C204.124 65.8095 203.215 65.6766 201.776 65.6766H198.785V71.8234C198.785 73.2854 199.051 74.1936 199.583 74.548C200.004 74.8138 201.122 74.9467 202.939 74.9467C205.043 74.9467 206.416 74.5812 207.059 73.8502C207.701 73.075 208.266 72.0228 208.753 70.6938L209.75 70.8599Z" fill="white"/>
</svg>
