<svg width="18" height="45" viewBox="0 0 18 45" fill="none" xmlns="http://www.w3.org/2000/svg">
<path d="M17.9855 29.1487C17.8329 27.6517 17.6684 26.1546 17.504 24.6465C17.2222 22.0597 16.9403 19.4618 16.6819 16.875C16.5175 15.2678 15.3431 14.079 13.7811 14.068C10.5985 14.046 7.40405 14.057 4.22139 14.068C2.85907 14.079 1.61419 15.0807 1.41454 16.3576C1.25012 17.4584 1.15616 18.5702 1.02698 19.671C0.815584 21.5753 0.615934 23.4797 0.416283 25.395C0.275353 26.716 0.110935 28.0369 0.00523802 29.3689C-0.0652269 30.3486 0.580701 30.932 1.61419 30.943C2.0957 30.943 2.57721 30.943 3.09395 30.943C3.12918 31.1411 3.15267 31.3063 3.17616 31.4824C3.31709 32.7923 3.44627 34.1022 3.5872 35.4122C3.7986 37.3606 3.98651 39.3089 4.22139 41.2573C4.3036 41.9728 4.39755 42.7214 4.65592 43.3929C4.98476 44.2735 5.84208 44.7028 6.74638 45C8.24963 45 9.75288 45 11.2444 45C11.2914 44.967 11.3383 44.9229 11.3971 44.9119C12.6537 44.5597 13.4171 43.7781 13.605 42.5563C13.7342 41.6977 13.8046 40.839 13.8986 39.9804C14.1452 37.7128 14.3801 35.4452 14.6267 33.1666C14.7089 32.4291 14.7911 31.6915 14.8851 30.932C15.3666 30.932 15.8011 30.932 16.2357 30.932C17.504 30.932 18.103 30.3266 17.9855 29.1487Z" fill="#E2EBEB"/>
<path d="M9.01306 11.25C12.3484 11.25 15.0026 8.74023 15.0026 5.60299C15.0026 2.49878 12.3249 0 9.01306 0C5.67772 0 3.00005 2.49878 3.00005 5.62501C3.00005 8.75124 5.67772 11.25 9.01306 11.25Z" fill="#E2EBEB"/>
</svg>
