<svg width="17" height="45" viewBox="0 0 17 45" fill="none" xmlns="http://www.w3.org/2000/svg">
<path d="M16.9863 29.1487C16.8421 27.6517 16.6869 26.1546 16.5316 24.6465C16.2654 22.0597 15.9992 19.4618 15.7552 16.875C15.5999 15.2678 14.4907 14.079 13.0155 14.068C10.0097 14.046 6.99272 14.057 3.98687 14.068C2.70023 14.079 1.52451 15.0807 1.33595 16.3576C1.18067 17.4584 1.09193 18.5702 0.969925 19.671C0.770274 21.5753 0.581715 23.4797 0.393156 25.395C0.260056 26.716 0.104772 28.0369 0.00494702 29.3689C-0.0616032 30.3486 0.54844 30.932 1.52451 30.943C1.97927 30.943 2.43403 30.943 2.92206 30.943C2.95534 31.1411 2.97752 31.3063 2.99971 31.4824C3.13281 32.7923 3.25481 34.1022 3.38792 35.4122C3.58757 37.3606 3.76503 39.3089 3.98687 41.2573C4.06451 41.9728 4.15324 42.7214 4.39726 43.3929C4.70783 44.2735 5.51752 44.7028 6.37158 45C7.79132 45 9.21106 45 10.6197 45C10.6641 44.967 10.7084 44.9229 10.7639 44.9119C11.9507 44.5597 12.6717 43.7781 12.8491 42.5563C12.9711 41.6977 13.0377 40.839 13.1264 39.9804C13.3594 37.7128 13.5812 35.4452 13.8141 33.1666C13.8918 32.4291 13.9694 31.6915 14.0581 30.932C14.5129 30.932 14.9233 30.932 15.3337 30.932C16.5316 30.932 17.0973 30.3266 16.9863 29.1487Z" fill="#087868"/>
<path d="M8.51233 11.25C11.6624 11.25 14.1691 8.74023 14.1691 5.60299C14.1691 2.49878 11.6402 0 8.51233 0C5.36229 0 2.83338 2.49878 2.83338 5.62501C2.83338 8.75124 5.36229 11.25 8.51233 11.25Z" fill="#087868"/>
</svg>
