<svg width="70" height="70" viewBox="0 0 70 70" fill="none" xmlns="http://www.w3.org/2000/svg">
<path d="M68.9573 63.5208L55.4374 50.0158C60.2931 43.8007 62.5928 35.9696 61.8674 28.1192C61.142 20.2688 57.4463 12.9904 51.5338 7.76806C45.6212 2.54573 37.9372 -0.22724 30.0484 0.0145848C22.1597 0.256409 14.6603 3.49481 9.0795 9.06947C3.49868 14.6441 0.256693 22.1352 0.0146009 30.0152C-0.227491 37.8953 2.54854 45.5709 7.77665 51.4768C13.0048 57.3828 20.2912 61.0745 28.1503 61.7991C36.0093 62.5236 43.8492 60.2265 50.0711 55.3762L63.591 68.8811C64.2793 69.5802 65.2145 69.9819 66.196 70C66.6825 69.9938 67.1631 69.8918 67.6101 69.6998C68.0571 69.5078 68.4618 69.2296 68.801 68.8811C69.1658 68.5407 69.4595 68.1315 69.665 67.677C69.8706 67.2226 69.9839 66.7319 69.9984 66.2335C70.0129 65.735 69.9284 65.2386 69.7497 64.773C69.571 64.3074 69.3017 63.8818 68.9573 63.5208ZM31.1329 54.3614C26.5269 54.3614 22.0243 52.997 18.1945 50.4409C14.3647 47.8847 11.3798 44.2515 9.61712 40.0008C7.85446 35.7501 7.39327 31.0727 8.29186 26.5602C9.19046 22.0476 11.4085 17.9026 14.6654 14.6492C17.9224 11.3959 22.072 9.1803 26.5896 8.2827C31.1071 7.3851 35.7896 7.84578 40.0451 9.60649C44.3005 11.3672 47.9377 14.3489 50.4966 18.1744C53.0556 22 54.4215 26.4976 54.4215 31.0985C54.4146 37.2661 51.9588 43.1791 47.5928 47.5402C43.2268 51.9014 37.3073 54.3545 31.1329 54.3614Z" fill="white"/>
</svg>
